<svg width="16" height="16" viewBox="0 0 16 16" fill="none" xmlns="http://www.w3.org/2000/svg">
<path fill-rule="evenodd" clip-rule="evenodd" d="M3.55556 0C4.34388 0.000104842 5.10985 0.262066 5.73314 0.744738C6.35643 1.22741 6.80173 1.90345 6.99911 2.66667H14.2222V4.44444H6.99911C6.78068 5.28043 6.26545 6.00835 5.54962 6.49227C4.83379 6.97618 3.9663 7.18302 3.10914 7.07416C2.25197 6.9653 1.46372 6.54819 0.89158 5.90069C0.31944 5.2532 0.00252089 4.41961 0 3.55556C0 2.61256 0.374602 1.70819 1.0414 1.0414C1.70819 0.374602 2.61256 0 3.55556 0ZM3.55556 5.33333C4.02705 5.33333 4.47924 5.14603 4.81263 4.81263C5.14603 4.47924 5.33333 4.02705 5.33333 3.55556C5.33333 3.08406 5.14603 2.63187 4.81263 2.29848C4.47924 1.96508 4.02705 1.77778 3.55556 1.77778C3.08406 1.77778 2.63187 1.96508 2.29848 2.29848C1.96508 2.63187 1.77778 3.08406 1.77778 3.55556C1.77778 4.02705 1.96508 4.47924 2.29848 4.81263C2.63187 5.14603 3.08406 5.33333 3.55556 5.33333ZM12.4444 15.1111C11.6561 15.111 10.8902 14.849 10.2669 14.3664C9.64357 13.8837 9.19827 13.2077 9.00089 12.4444H1.77778V10.6667H9.00089C9.21932 9.83068 9.73455 9.10276 10.4504 8.61884C11.1662 8.13493 12.0337 7.92809 12.8909 8.03695C13.748 8.14581 14.5363 8.56293 15.1084 9.21042C15.6806 9.85791 15.9975 10.6915 16 11.5556C16 12.4985 15.6254 13.4029 14.9586 14.0697C14.2918 14.7365 13.3874 15.1111 12.4444 15.1111ZM12.4444 13.3333C12.9159 13.3333 13.3681 13.146 13.7015 12.8126C14.0349 12.4792 14.2222 12.0271 14.2222 11.5556C14.2222 11.0841 14.0349 10.6319 13.7015 10.2985C13.3681 9.96508 12.9159 9.77778 12.4444 9.77778C11.9729 9.77778 11.5208 9.96508 11.1874 10.2985C10.854 10.6319 10.6667 11.0841 10.6667 11.5556C10.6667 12.0271 10.854 12.4792 11.1874 12.8126C11.5208 13.146 11.9729 13.3333 12.4444 13.3333Z" fill="black"/>
</svg>
