<svg width="30" height="30" viewBox="0 0 30 30" fill="none" xmlns="http://www.w3.org/2000/svg">
<path d="M13.3121 2.10519C14.2571 1.30869 15.7826 1.30869 16.7006 2.10519L18.8336 3.92769C19.2386 4.26519 20.0081 4.54869 20.5481 4.54869H22.8431C24.2741 4.54869 25.4486 5.72319 25.4486 7.15419V9.44919C25.4486 9.98919 25.7321 10.7452 26.0696 11.1502L27.8921 13.2831C28.6886 14.2281 28.6886 15.7536 27.8921 16.6716L26.0696 18.8046C25.7321 19.2096 25.4486 19.9656 25.4486 20.5056V22.8006C25.4486 24.2316 24.2741 25.4061 22.8431 25.4061H20.5481C20.0081 25.4061 19.2521 25.6896 18.8471 26.0271L16.7141 27.8496C15.7691 28.6461 14.2436 28.6461 13.3256 27.8496L11.1926 26.0271C10.7876 25.6896 10.0181 25.4061 9.4916 25.4061H7.1291C5.6981 25.4061 4.5236 24.2316 4.5236 22.8006V20.4921C4.5236 19.9656 4.2536 19.1961 3.9161 18.8046L2.0936 16.6581C1.3106 15.7266 1.3106 14.2146 2.0936 13.2831L3.9161 11.1367C4.2536 10.7317 4.5236 9.97569 4.5236 9.44919V7.16769C4.5236 5.73669 5.6981 4.56219 7.1291 4.56219H9.4646C10.0046 4.56219 10.7606 4.27869 11.1656 3.94119L13.3121 2.10519Z" stroke="#ACACAC" stroke-width="1.35" stroke-linecap="round" stroke-linejoin="round"/>
<path d="M14.9998 9.77325V16.2938" stroke="#ACACAC" stroke-width="1.35" stroke-linecap="round" stroke-linejoin="round"/>
<path d="M14.9923 20.3978H15.0045" stroke="#ACACAC" stroke-width="2.25" stroke-linecap="round" stroke-linejoin="round"/>
</svg>
