<svg width="21" height="23" viewBox="0 0 21 23" fill="none" xmlns="http://www.w3.org/2000/svg">
<path d="M10.5581 0.905029C6.56815 0.905029 3.33715 4.13603 3.33715 8.126V10.4029C3.33715 11.1402 3.03356 12.2461 2.65408 12.8749L1.27711 15.1735C0.431408 16.5938 1.01689 18.1768 2.57818 18.6972C7.76081 20.4212 13.3663 20.4212 18.5489 18.6972C20.0126 18.2093 20.6414 16.4963 19.85 15.1735L18.473 12.8749C18.0935 12.2461 17.7899 11.1293 17.7899 10.4029V8.126C17.7791 4.15772 14.5264 0.905029 10.5581 0.905029Z" fill="url(#paint0_linear_1018_809)"/>
<path d="M14.147 19.1418C14.147 21.126 12.5206 22.7523 10.5365 22.7523C9.54982 22.7523 8.63907 22.3403 7.98857 21.6898C7.33803 21.0392 6.92603 20.1285 6.92603 19.1418" fill="url(#paint1_linear_1018_809)"/>
<defs>
<linearGradient id="paint0_linear_1018_809" x1="10.5421" y1="0.905029" x2="10.5421" y2="19.9902" gradientUnits="userSpaceOnUse">
<stop stop-color="#69B63F"/>
<stop offset="1" stop-color="#72B54D"/>
</linearGradient>
<linearGradient id="paint1_linear_1018_809" x1="10.5365" y1="19.1418" x2="10.5365" y2="22.7523" gradientUnits="userSpaceOnUse">
<stop stop-color="#69B63F"/>
<stop offset="1" stop-color="#72B54D"/>
</linearGradient>
</defs>
</svg>
