<svg width="14" height="15" viewBox="0 0 14 15" fill="none" xmlns="http://www.w3.org/2000/svg">
<path d="M7 10.55V11.56M7 5.54V6.48M7 14.02C10.5 14.02 13 12.78 13 10.02C13 7.02 11.5 5.02 8.5 3.52L9.68 2C9.73995 1.90027 9.77246 1.78647 9.77425 1.67012C9.77604 1.55377 9.74704 1.43902 9.69018 1.3375C9.63333 1.23597 9.55065 1.15128 9.45051 1.09201C9.35038 1.03274 9.23636 1.001 9.12 1H4.88C4.76364 1.001 4.64962 1.03274 4.54949 1.09201C4.44935 1.15128 4.36667 1.23597 4.30982 1.3375C4.25296 1.43902 4.22396 1.55377 4.22575 1.67012C4.22754 1.78647 4.26005 1.90027 4.32 2L5.5 3.53C2.5 5.04 1 7.04 1 10.04C1 12.78 3.5 14.02 7 14.02Z" stroke="black" stroke-linecap="round" stroke-linejoin="round"/>
<path d="M6 10.09C6.12201 10.2348 6.27558 10.3498 6.44893 10.4261C6.62227 10.5023 6.81078 10.5379 7 10.53C7.2892 10.5497 7.57479 10.4565 7.79671 10.27C8.01864 10.0836 8.15961 9.81829 8.19 9.53001C8.15961 9.24173 8.01864 8.97646 7.79671 8.78997C7.57479 8.60347 7.2892 8.51029 7 8.53001C6.71079 8.54972 6.42521 8.45654 6.20328 8.27005C5.98136 8.08356 5.84038 7.81829 5.81 7.53001C5.83794 7.24071 5.97824 6.97392 6.20074 6.78694C6.42325 6.59996 6.71022 6.50771 7 6.53001C7.18588 6.51863 7.37198 6.54861 7.54489 6.61777C7.7178 6.68694 7.87323 6.79357 8 6.93001" stroke="black" stroke-linecap="round" stroke-linejoin="round"/>
</svg>
