<svg width="17" height="21" viewBox="0 0 17 21" fill="none" xmlns="http://www.w3.org/2000/svg">
<path d="M16.0339 16.3153C15.6118 15.9753 15.2857 15.531 15.0879 15.0263C14.3647 13.1486 14.029 11.1441 14.1009 9.13328C14.1009 9.12528 14.1009 9.11828 14.1009 9.11028C14.0957 8.02025 13.7773 6.95469 13.1838 6.04043C12.5902 5.12616 11.7464 4.4017 10.7529 3.95328V2.59628C10.7527 2.00465 10.5177 1.43729 10.0997 1.01866C9.68159 0.600038 9.11454 0.364341 8.52292 0.363281H8.33792C7.74646 0.364605 7.17967 0.600419 6.76182 1.01902C6.34398 1.43761 6.10918 2.00483 6.10892 2.59628V3.95328C5.11167 4.40339 4.26541 5.13157 3.67159 6.05051C3.07776 6.96945 2.76157 8.04017 2.76092 9.13428C2.83283 11.1451 2.49709 13.1496 1.77392 15.0273C1.57614 15.532 1.25006 15.9763 0.827917 16.3163C0.708928 16.3719 0.612728 16.4667 0.555533 16.585C0.498337 16.7032 0.483642 16.8375 0.513918 16.9653C0.545779 17.0971 0.621349 17.2142 0.728312 17.2976C0.835274 17.3809 0.967316 17.4256 1.10291 17.4243H5.40292C5.41733 18.2166 5.74221 18.9717 6.30766 19.5269C6.87311 20.0822 7.63393 20.3933 8.42642 20.3933C9.21891 20.3933 9.97973 20.0822 10.5452 19.5269C11.1106 18.9717 11.4355 18.2166 11.4499 17.4243H15.7499C15.8855 17.4256 16.0176 17.3809 16.1245 17.2976C16.2315 17.2142 16.3071 17.0971 16.3389 16.9653C16.3701 16.8384 16.3569 16.7046 16.3014 16.5863C16.2459 16.468 16.1515 16.3724 16.0339 16.3153ZM7.28391 2.59628C7.28391 2.31629 7.395 2.04774 7.5928 1.84958C7.79059 1.65141 8.05893 1.53981 8.33891 1.53928H8.52392C8.8039 1.53981 9.07224 1.65141 9.27004 1.84958C9.46783 2.04774 9.57892 2.31629 9.57892 2.59628V3.57228C8.82219 3.41648 8.04165 3.41648 7.28492 3.57228V2.59628H7.28391ZM8.43092 19.2323C7.94786 19.2314 7.48425 19.0419 7.13887 18.7042C6.79349 18.3664 6.59365 17.9072 6.58191 17.4243H10.2819C10.2702 17.9075 10.0701 18.3671 9.72425 18.7049C9.37844 19.0426 8.91432 19.2319 8.43092 19.2323ZM10.7959 16.2473H2.44092C2.55261 16.0726 2.65541 15.8924 2.74891 15.7073C3.6376 13.6346 4.04316 11.3869 3.93492 9.13428C3.90774 8.527 4.00388 7.92051 4.21754 7.35141C4.43121 6.78231 4.75796 6.2624 5.17808 5.82305C5.5982 5.38371 6.10298 5.03404 6.66196 4.79514C7.22094 4.55625 7.82253 4.43309 8.43041 4.43309C9.0383 4.43309 9.63989 4.55625 10.1989 4.79514C10.7578 5.03404 11.2626 5.38371 11.6828 5.82305C12.1029 6.2624 12.4296 6.78231 12.6433 7.35141C12.8569 7.92051 12.9531 8.527 12.9259 9.13428C12.9259 9.14128 12.9259 9.14828 12.9259 9.15628C12.8203 11.4009 13.2258 13.6402 14.1119 15.7053C14.2054 15.8904 14.3082 16.0706 14.4199 16.2453L10.7959 16.2473Z" fill="black" stroke="black" stroke-width="0.2"/>
</svg>
