<svg width="20" height="21" viewBox="0 0 20 21" fill="none" xmlns="http://www.w3.org/2000/svg">
<path d="M10.0003 16.008C10.5244 16.008 10.9493 15.5831 10.9493 15.059C10.9493 14.5349 10.5244 14.11 10.0003 14.11C9.47615 14.11 9.05127 14.5349 9.05127 15.059C9.05127 15.5831 9.47615 16.008 10.0003 16.008Z" fill="black"/>
<path d="M10.0003 0.688966C8.07802 0.688966 6.19895 1.25898 4.60067 2.32691C3.00239 3.39485 1.75668 4.91275 1.02107 6.68867C0.285461 8.46458 0.0929925 10.4187 0.468002 12.304C0.843012 14.1893 1.76866 15.9211 3.12788 17.2803C4.48711 18.6396 6.21887 19.5652 8.10417 19.9402C9.98947 20.3152 11.9436 20.1228 13.7196 19.3872C15.4955 18.6515 17.0134 17.4058 18.0813 15.8076C19.1492 14.2093 19.7193 12.3302 19.7193 10.408C19.7199 9.13146 19.469 7.86735 18.9808 6.68789C18.4926 5.50843 17.7767 4.43675 16.8741 3.53413C15.9715 2.63151 14.8998 1.91564 13.7203 1.42744C12.5409 0.93925 11.2768 0.688309 10.0003 0.688966ZM10.0003 18.608C8.37845 18.608 6.79306 18.127 5.44458 17.226C4.0961 16.325 3.04508 15.0443 2.42444 13.546C1.8038 12.0476 1.64142 10.3989 1.95782 8.80823C2.27421 7.21758 3.05519 5.75648 4.20198 4.60969C5.34877 3.4629 6.80987 2.68193 8.40051 2.36553C9.99116 2.04913 11.6399 2.21152 13.1383 2.83215C14.6366 3.45279 15.9173 4.50381 16.8183 5.85229C17.7193 7.20077 18.2003 8.78616 18.2003 10.408C18.2003 12.5827 17.3363 14.6684 15.7985 16.2062C14.2607 17.744 12.175 18.608 10.0003 18.608Z" fill="black"/>
<path d="M10.0003 5.56696C9.19512 5.56801 8.42326 5.88832 7.85394 6.45764C7.28462 7.02696 6.96432 7.79882 6.96326 8.60396C6.96326 8.80539 7.04328 8.99857 7.18571 9.14101C7.32815 9.28344 7.52133 9.36345 7.72276 9.36345C7.92419 9.36345 8.11738 9.28344 8.25981 9.14101C8.40225 8.99857 8.48225 8.80539 8.48225 8.60396C8.48225 8.30353 8.57134 8.00984 8.73825 7.76004C8.90516 7.51024 9.14241 7.31555 9.41997 7.20058C9.69753 7.08561 10.0029 7.05552 10.2976 7.11414C10.5922 7.17275 10.8629 7.31743 11.0753 7.52986C11.2878 7.7423 11.4325 8.01296 11.4911 8.30762C11.5497 8.60227 11.5196 8.9077 11.4046 9.18526C11.2897 9.46282 11.095 9.70005 10.8452 9.86696C10.5954 10.0339 10.3017 10.123 10.0013 10.123C9.79995 10.123 9.60691 10.2029 9.46457 10.3453C9.32223 10.4876 9.24226 10.6807 9.24226 10.882V12.782C9.24226 12.9834 9.32227 13.1766 9.46471 13.319C9.60714 13.4614 9.80032 13.5415 10.0018 13.5415C10.2032 13.5415 10.3964 13.4614 10.5388 13.319C10.6812 13.1766 10.7613 12.9834 10.7613 12.782V11.547C11.4773 11.3625 12.1015 10.9231 12.5167 10.3112C12.9319 9.69936 13.1097 8.95701 13.0165 8.22343C12.9234 7.48986 12.5658 6.81548 12.0108 6.32677C11.4559 5.83806 10.7417 5.5686 10.0023 5.56895L10.0003 5.56696Z" fill="black"/>
</svg>
