<svg width="20" height="21" viewBox="0 0 20 21" fill="none" xmlns="http://www.w3.org/2000/svg">
<path d="M10.0003 16.008C10.5244 16.008 10.9493 15.5831 10.9493 15.059C10.9493 14.5349 10.5244 14.11 10.0003 14.11C9.47615 14.11 9.05127 14.5349 9.05127 15.059C9.05127 15.5831 9.47615 16.008 10.0003 16.008Z" fill="white"/>
<path d="M10.0003 0.688966C8.07802 0.688966 6.19895 1.25898 4.60067 2.32691C3.00239 3.39485 1.75668 4.91275 1.02107 6.68867C0.285461 8.46458 0.0929925 10.4187 0.468002 12.304C0.843012 14.1893 1.76866 15.9211 3.12788 17.2803C4.48711 18.6396 6.21887 19.5652 8.10417 19.9402C9.98947 20.3152 11.9436 20.1228 13.7196 19.3872C15.4955 18.6515 17.0134 17.4058 18.0813 15.8076C19.1492 14.2093 19.7193 12.3302 19.7193 10.408C19.7199 9.13146 19.469 7.86735 18.9808 6.68789C18.4926 5.50843 17.7767 4.43675 16.8741 3.53413C15.9715 2.63151 14.8998 1.91564 13.7203 1.42744C12.5409 0.93925 11.2768 0.688309 10.0003 0.688966ZM10.0003 18.608C8.37845 18.608 6.79306 18.127 5.44458 17.226C4.0961 16.325 3.04508 15.0443 2.42444 13.546C1.8038 12.0476 1.64142 10.3989 1.95782 8.80823C2.27421 7.21758 3.05519 5.75648 4.20198 4.60969C5.34877 3.4629 6.80987 2.68193 8.40051 2.36553C9.99116 2.04913 11.6399 2.21152 13.1383 2.83215C14.6366 3.45279 15.9173 4.50381 16.8183 5.85229C17.7193 7.20077 18.2003 8.78616 18.2003 10.408C18.2003 12.5827 17.3363 14.6684 15.7985 16.2062C14.2607 17.744 12.175 18.608 10.0003 18.608Z" fill="white"/>
<path d="M10.0001 5.56702C9.195 5.56807 8.42314 5.88838 7.85382 6.4577C7.2845 7.02702 6.96419 7.79888 6.96313 8.60402C6.96313 8.80545 7.04316 8.99863 7.18559 9.14107C7.32803 9.2835 7.52121 9.36351 7.72264 9.36351C7.92407 9.36351 8.11726 9.2835 8.25969 9.14107C8.40212 8.99863 8.48213 8.80545 8.48213 8.60402C8.48213 8.30359 8.57122 8.0099 8.73813 7.7601C8.90504 7.5103 9.14228 7.31561 9.41985 7.20064C9.69741 7.08567 10.0028 7.05559 10.2975 7.1142C10.5921 7.17281 10.8628 7.31749 11.0752 7.52992C11.2877 7.74236 11.4323 8.01302 11.491 8.30768C11.5496 8.60234 11.5195 8.90776 11.4045 9.18532C11.2895 9.46288 11.0948 9.70011 10.845 9.86702C10.5952 10.0339 10.3016 10.123 10.0011 10.123C9.79983 10.123 9.60679 10.203 9.46445 10.3453C9.32211 10.4877 9.24214 10.6807 9.24214 10.882V12.782C9.24214 12.9834 9.32215 13.1766 9.46458 13.3191C9.60702 13.4615 9.8002 13.5415 10.0016 13.5415C10.2031 13.5415 10.3962 13.4615 10.5387 13.3191C10.6811 13.1766 10.7611 12.9834 10.7611 12.782V11.547C11.4772 11.3626 12.1014 10.9232 12.5166 10.3113C12.9318 9.69942 13.1095 8.95707 13.0164 8.2235C12.9233 7.48992 12.5657 6.81554 12.0107 6.32683C11.4558 5.83812 10.7416 5.56866 10.0021 5.56902L10.0001 5.56702Z" fill="white"/>
</svg>
