<svg width="21" height="24" viewBox="0 0 21 24" fill="none" xmlns="http://www.w3.org/2000/svg">
<path d="M10.5363 5.71893V9.32942" stroke="#BBBBBB" stroke-width="1.52064" stroke-miterlimit="10" stroke-linecap="round"/>
<path d="M10.5581 0.905029C6.56815 0.905029 3.33715 4.13603 3.33715 8.126V10.4029C3.33715 11.1402 3.03356 12.2461 2.65408 12.8749L1.27711 15.1735C0.431408 16.5938 1.01689 18.1768 2.57818 18.6972C7.76081 20.4212 13.3663 20.4212 18.5489 18.6972C20.0126 18.2093 20.6414 16.4963 19.85 15.1735L18.473 12.8749C18.0935 12.2461 17.7899 11.1293 17.7899 10.4029V8.126C17.7791 4.15772 14.5264 0.905029 10.5581 0.905029Z" stroke="#BBBBBB" stroke-width="1.52064" stroke-miterlimit="10" stroke-linecap="round"/>
<path d="M14.1469 19.1418C14.1469 21.126 12.5206 22.7523 10.5364 22.7523C9.54976 22.7523 8.639 22.3403 7.98851 21.6898C7.33797 21.0392 6.92596 20.1285 6.92596 19.1418" stroke="#BBBBBB" stroke-width="1.52064" stroke-miterlimit="10"/>
</svg>
