<svg width="9" height="10" viewBox="0 0 9 10" fill="none" xmlns="http://www.w3.org/2000/svg">
<path d="M7.62599 0.413208H1.44927C1.08535 0.413605 0.736454 0.558347 0.479126 0.815675C0.221799 1.073 0.0770575 1.4219 0.0766602 1.78582V7.96256C0.0770575 8.32647 0.221799 8.67537 0.479126 8.9327C0.736454 9.19003 1.08535 9.33477 1.44927 9.33517H7.62599C7.98991 9.33477 8.33881 9.19003 8.59613 8.9327C8.85346 8.67537 8.9982 8.32647 8.9986 7.96256V1.78582C8.9982 1.4219 8.85346 1.073 8.59613 0.815675C8.33881 0.558347 7.98991 0.413605 7.62599 0.413208ZM6.85926 3.37912L3.97679 6.81064C3.94517 6.8483 3.90583 6.87872 3.86143 6.89985C3.81702 6.92098 3.7686 6.93232 3.71943 6.9331H3.71364C3.66554 6.93308 3.61798 6.92296 3.57405 6.90337C3.53012 6.88379 3.4908 6.85519 3.45863 6.81943L2.22329 5.44682C2.19191 5.41355 2.16751 5.37434 2.15151 5.33149C2.1355 5.28865 2.12823 5.24304 2.1301 5.19735C2.13198 5.15165 2.14297 5.10679 2.16243 5.0654C2.18189 5.02402 2.20943 4.98694 2.24342 4.95635C2.27742 4.92575 2.31718 4.90226 2.36038 4.88726C2.40359 4.87226 2.44935 4.86604 2.49499 4.86897C2.54063 4.87191 2.58522 4.88394 2.62615 4.90436C2.66707 4.92477 2.7035 4.95316 2.7333 4.98786L3.70463 6.06707L6.33381 2.93774C6.39279 2.86955 6.47623 2.82731 6.56609 2.82015C6.65596 2.81299 6.74504 2.84148 6.81406 2.89947C6.88309 2.95745 6.92653 3.04027 6.93499 3.13003C6.94345 3.21978 6.91625 3.30926 6.85926 3.37912Z" fill="#02BA20"/>
</svg>
