<svg width="20" height="21" viewBox="0 0 20 21" fill="none" xmlns="http://www.w3.org/2000/svg">
<path d="M10.0003 7.00799C10.5244 7.00799 10.9493 6.5831 10.9493 6.05899C10.9493 5.53487 10.5244 5.10999 10.0003 5.10999C9.47615 5.10999 9.05127 5.53487 9.05127 6.05899C9.05127 6.5831 9.47615 7.00799 10.0003 7.00799Z" fill="black"/>
<path d="M10.0003 0.688966C8.07802 0.688966 6.19895 1.25898 4.60067 2.32691C3.00239 3.39485 1.75668 4.91275 1.02107 6.68867C0.285461 8.46458 0.0929925 10.4187 0.468002 12.304C0.843012 14.1893 1.76866 15.9211 3.12788 17.2803C4.48711 18.6396 6.21887 19.5652 8.10417 19.9402C9.98947 20.3152 11.9436 20.1228 13.7196 19.3872C15.4955 18.6515 17.0134 17.4058 18.0813 15.8076C19.1492 14.2093 19.7193 12.3302 19.7193 10.408C19.7199 9.13146 19.469 7.86735 18.9808 6.68789C18.4926 5.50843 17.7767 4.43675 16.8741 3.53413C15.9715 2.63151 14.8998 1.91564 13.7203 1.42744C12.5409 0.93925 11.2768 0.688309 10.0003 0.688966ZM10.0003 18.608C8.37845 18.608 6.79306 18.127 5.44458 17.226C4.0961 16.325 3.04508 15.0443 2.42444 13.546C1.8038 12.0476 1.64142 10.3989 1.95782 8.80823C2.27421 7.21758 3.05519 5.75648 4.20198 4.60969C5.34877 3.4629 6.80987 2.68193 8.40051 2.36553C9.99116 2.04913 11.6399 2.21152 13.1383 2.83215C14.6366 3.45279 15.9173 4.50381 16.8183 5.85229C17.7193 7.20077 18.2003 8.78616 18.2003 10.408C18.2003 12.5827 17.3363 14.6684 15.7985 16.2062C14.2607 17.744 12.175 18.608 10.0003 18.608Z" fill="black"/>
<path d="M11.0002 9.40796C11.0002 8.85567 10.5525 8.40796 10.0002 8.40796C9.44796 8.40796 9.00024 8.85567 9.00024 9.40796V15.408C9.00024 15.9602 9.44796 16.408 10.0002 16.408C10.5525 16.408 11.0002 15.9602 11.0002 15.408V9.40796Z" fill="black"/>
</svg>
