<svg width="12" height="15" viewBox="0 0 12 15" fill="none" xmlns="http://www.w3.org/2000/svg">
<path d="M5.6002 8.14544C5.09676 8.14544 4.60462 7.99615 4.18602 7.71645C3.76743 7.43676 3.44117 7.03921 3.24851 6.57409C3.05585 6.10897 3.00544 5.59716 3.10366 5.1034C3.20188 4.60963 3.44431 4.15607 3.8003 3.80008C4.15628 3.44409 4.60984 3.20166 5.10361 3.10345C5.59738 3.00523 6.10918 3.05564 6.5743 3.2483C7.03943 3.44096 7.43697 3.76721 7.71667 4.18581C7.99637 4.60441 8.14565 5.09655 8.14565 5.59999C8.14485 6.27484 7.87641 6.92181 7.39922 7.399C6.92203 7.87619 6.27505 8.14463 5.6002 8.14544ZM5.6002 4.07272C5.29814 4.07272 5.00285 4.16229 4.7517 4.33011C4.50054 4.49793 4.30478 4.73645 4.18919 5.01553C4.07359 5.2946 4.04335 5.60168 4.10228 5.89794C4.16121 6.19421 4.30667 6.46634 4.52026 6.67993C4.73385 6.89352 5.00598 7.03898 5.30225 7.09791C5.59851 7.15684 5.90559 7.1266 6.18466 7.011C6.46374 6.89541 6.70226 6.69965 6.87008 6.44849C7.0379 6.19734 7.12747 5.90205 7.12747 5.59999C7.12707 5.19505 6.96603 4.80682 6.6797 4.52049C6.39337 4.23416 6.00514 4.07312 5.6002 4.07272Z" fill="white"/>
<path d="M5.6 14.2545L1.30531 9.18959C1.24564 9.11354 1.18658 9.037 1.12815 8.95999C0.394541 7.99363 -0.00177224 6.81327 5.95783e-06 5.59999C5.95783e-06 4.11478 0.590004 2.6904 1.64021 1.6402C2.69041 0.589998 4.11479 0 5.6 0C7.08521 0 8.50959 0.589998 9.55979 1.6402C10.61 2.6904 11.2 4.11478 11.2 5.59999C11.2018 6.81272 10.8056 7.99254 10.0724 8.95846L10.0718 8.95999C10.0718 8.95999 9.91912 9.16057 9.89621 9.18755L5.6 14.2545ZM1.94066 8.34654C1.94168 8.34654 2.05979 8.50333 2.08677 8.53693L5.6 12.6804L9.11781 8.53134C9.14021 8.50334 9.25934 8.34552 9.25985 8.34501C9.85913 7.55547 10.183 6.59121 10.1818 5.59999C10.1818 4.38482 9.69909 3.21942 8.83983 2.36016C7.98057 1.50091 6.81517 1.01818 5.6 1.01818C4.38483 1.01818 3.21943 1.50091 2.36017 2.36016C1.50091 3.21942 1.01819 4.38482 1.01819 5.59999C1.01712 6.59182 1.34084 7.55664 1.94066 8.34654Z" fill="white"/>
</svg>
