<svg width="26" height="26" viewBox="0 0 26 26" fill="none" xmlns="http://www.w3.org/2000/svg">
<path d="M17.467 10.2666C18.7925 10.2666 19.867 9.1921 19.867 7.86661C19.867 6.54113 18.7925 5.46661 17.467 5.46661C16.1415 5.46661 15.067 6.54113 15.067 7.86661C15.067 9.1921 16.1415 10.2666 17.467 10.2666Z" stroke="#ACACAC" stroke-width="1.3"/>
<path d="M0.666992 10.4511L1.84387 10.2821C10.2177 9.07965 17.3756 16.3041 16.0955 24.6664" stroke="#ACACAC" stroke-width="1.3" stroke-linecap="round"/>
<path d="M24.6666 14.3286L23.4984 14.1669C20.0859 13.6943 16.9982 15.3933 15.4081 18.0672" stroke="#ACACAC" stroke-width="1.3" stroke-linecap="round"/>
<path d="M24.667 12.6666C24.667 18.3234 24.667 21.1519 22.9096 22.9092C21.1523 24.6666 18.3238 24.6666 12.667 24.6666C7.01013 24.6666 4.18171 24.6666 2.42436 22.9092C0.666992 21.1519 0.666992 18.3234 0.666992 12.6666C0.666992 7.00977 0.666992 4.18134 2.42436 2.42399C4.18171 0.666626 7.01013 0.666626 12.667 0.666626C18.3238 0.666626 21.1523 0.666626 22.9096 2.42399C24.0782 3.59248 24.4697 5.23449 24.6009 7.86663" stroke="#ACACAC" stroke-width="1.3" stroke-linecap="round"/>
</svg>
