<svg width="19" height="16" viewBox="0 0 19 16" fill="none" xmlns="http://www.w3.org/2000/svg">
<path d="M9.01811 13.6631H8.27711V1.81306H12.7221V2.55406C12.7221 2.75058 12.8002 2.93906 12.9391 3.07802C13.0781 3.21699 13.2666 3.29506 13.4631 3.29506C13.6596 3.29506 13.8481 3.21699 13.9871 3.07802C14.126 2.93906 14.2041 2.75058 14.2041 2.55406V1.07206C14.2042 0.974709 14.1852 0.878293 14.148 0.788331C14.1108 0.69837 14.0562 0.61663 13.9874 0.547796C13.9185 0.478961 13.8368 0.424385 13.7468 0.387193C13.6569 0.35 13.5605 0.330924 13.4631 0.331055H1.42411C1.32676 0.330924 1.23034 0.35 1.14038 0.387193C1.05042 0.424385 0.968681 0.478961 0.899846 0.547796C0.831012 0.61663 0.776435 0.69837 0.739243 0.788331C0.702051 0.878293 0.682975 0.974709 0.683106 1.07206V2.55406C0.683106 2.75058 0.761176 2.93906 0.90014 3.07802C1.0391 3.21699 1.22758 3.29506 1.42411 3.29506C1.62063 3.29506 1.80911 3.21699 1.94807 3.07802C2.08704 2.93906 2.16511 2.75058 2.16511 2.55406V1.81306H6.79511V13.6631H6.05411C5.85758 13.6631 5.6691 13.7411 5.53014 13.8801C5.39118 14.0191 5.31311 14.2075 5.31311 14.4041C5.31311 14.6006 5.39118 14.7891 5.53014 14.928C5.6691 15.067 5.85758 15.1451 6.05411 15.1451H9.01811C9.21463 15.1451 9.40311 15.067 9.54207 14.928C9.68104 14.7891 9.75911 14.6006 9.75911 14.4041C9.75911 14.2075 9.68104 14.0191 9.54207 13.8801C9.40311 13.7411 9.21463 13.6631 9.01811 13.6631Z" fill="black"/>
<path d="M17.9081 6.99909H11.9811C11.8838 6.99896 11.7874 7.01804 11.6974 7.05523C11.6074 7.09242 11.5257 7.14699 11.4568 7.21583C11.388 7.28466 11.3335 7.3664 11.2963 7.45637C11.2591 7.54633 11.24 7.64274 11.2401 7.74009V9.04009C11.2401 9.23662 11.3182 9.4251 11.4572 9.56406C11.5961 9.70303 11.7846 9.78109 11.9811 9.78109C12.1776 9.78109 12.3661 9.70303 12.5051 9.56406C12.644 9.4251 12.7221 9.23662 12.7221 9.04009V8.48409H14.2041V13.6701H13.8341C13.6376 13.6701 13.4491 13.7482 13.3102 13.8871C13.1712 14.0261 13.0931 14.2146 13.0931 14.4111C13.0931 14.6076 13.1712 14.7961 13.3102 14.9351C13.4491 15.074 13.6376 15.1521 13.8341 15.1521H16.0571C16.2536 15.1521 16.4421 15.074 16.5811 14.9351C16.7201 14.7961 16.7981 14.6076 16.7981 14.4111C16.7981 14.2146 16.7201 14.0261 16.5811 13.8871C16.4421 13.7482 16.2536 13.6701 16.0571 13.6701H15.6871V8.48109H17.1691V8.8511C17.1691 9.04762 17.2472 9.23609 17.3861 9.37505C17.5251 9.51402 17.7136 9.59209 17.9101 9.59209C18.1067 9.59209 18.2951 9.51402 18.4341 9.37505C18.573 9.23609 18.6511 9.04762 18.6511 8.8511V7.74009C18.6513 7.64257 18.6321 7.546 18.5948 7.45591C18.5575 7.36582 18.5027 7.28399 18.4337 7.21512C18.3646 7.14626 18.2826 7.09172 18.1924 7.05465C18.1023 7.01757 18.0056 6.9987 17.9081 6.99909Z" fill="black"/>
</svg>
