<svg width="12" height="13" viewBox="0 0 12 13" fill="none" xmlns="http://www.w3.org/2000/svg">
<path d="M12.0016 6.51571C12.0016 9.57688 9.52004 12.0584 6.45887 12.0584C3.3977 12.0584 0.916138 9.57688 0.916138 6.51571C0.916138 3.45454 3.3977 0.972977 6.45887 0.972977C9.52004 0.972977 12.0016 3.45454 12.0016 6.51571ZM1.91383 6.51571C1.91383 9.02587 3.94871 11.0608 6.45887 11.0608C8.96903 11.0608 11.0039 9.02587 11.0039 6.51571C11.0039 4.00555 8.96903 1.97067 6.45887 1.97067C3.94871 1.97067 1.91383 4.00555 1.91383 6.51571Z" fill="white"/>
<path d="M6.90079 5.74401L6.90087 5.74377L6.89466 5.74222C6.6292 5.67586 6.3664 5.54362 6.17116 5.34839L6.15728 5.33451L6.13866 5.3283C5.97871 5.27498 5.91838 5.11157 5.91838 4.99147C5.91838 4.93425 5.93308 4.85912 5.96317 4.7914C5.99373 4.72265 6.035 4.67277 6.08027 4.65013L6.08056 4.65071L6.08921 4.64494C6.19479 4.57455 6.29178 4.51025 6.38684 4.47064C6.48025 4.43172 6.56234 4.42078 6.64035 4.44679L6.65315 4.45105H6.66664C7.05365 4.45105 7.37638 4.64448 7.57011 4.90279L7.63662 4.99147L7.70314 4.90279L8.32669 4.07138L8.36996 4.01369L8.31897 3.9627C8.10529 3.74902 7.89168 3.60662 7.68479 3.46869L7.68274 3.46733C7.47967 3.33195 7.21962 3.26002 6.95764 3.24749V2.35867V2.27553H6.8745H6.04309H5.95995V2.35867V3.2621C5.61703 3.34715 5.28276 3.55569 5.01432 3.82413L5.01396 3.82377L5.00819 3.83099C4.72785 4.18141 4.50248 4.61871 4.57428 5.06757C4.57578 5.49757 4.71962 5.93339 5.01432 6.22809C5.32262 6.53639 5.73682 6.73853 6.10638 6.91889C6.16667 6.94831 6.22578 6.97716 6.28304 7.00579L6.28266 7.00655L6.29393 7.0103C6.49156 7.07618 6.75814 7.20888 6.95988 7.34234C7.07573 7.46191 7.13778 7.64379 7.13778 7.83212C7.13778 8.01828 7.07668 8.20805 6.94849 8.40261C6.76081 8.5865 6.51038 8.64967 6.32022 8.64967C6.05072 8.64967 5.732 8.58128 5.5476 8.39689L5.54178 8.39107L5.53493 8.3865C5.33621 8.25402 5.1362 8.05401 5.00372 7.85529L4.94465 7.76669L4.87302 7.84548L4.18018 8.6076L4.13396 8.65845L4.17519 8.71342C4.38777 8.99686 4.60122 9.21031 4.88466 9.42289L4.88439 9.42324L4.89177 9.42767C5.21722 9.62294 5.61777 9.82764 6.02923 9.85267V10.6728V10.7559H6.11237H6.8745H6.95764V10.6728V9.70259C7.36255 9.61932 7.70092 9.40966 7.97255 9.13803C8.33609 8.77449 8.55117 8.19834 8.55117 7.69355C8.55117 7.26597 8.40981 6.75327 8.03862 6.45372C7.68419 6.10015 7.32753 5.88625 6.90079 5.74401Z" fill="url(#paint0_linear_1_198)" stroke="#E6961D" stroke-width="0.166282"/>
<defs>
<linearGradient id="paint0_linear_1_198" x1="6.35487" y1="2.35867" x2="6.35487" y2="10.6728" gradientUnits="userSpaceOnUse">
<stop stop-color="#FCAA49"/>
<stop offset="1" stop-color="#F38A0E"/>
</linearGradient>
</defs>
</svg>
