<svg width="12" height="12" viewBox="0 0 12 12" fill="none" xmlns="http://www.w3.org/2000/svg">
<path d="M11.1086 5.58491C11.1086 8.64608 8.62703 11.1276 5.56587 11.1276C2.5047 11.1276 0.0231323 8.64608 0.0231323 5.58491C0.0231323 2.52374 2.5047 0.0421753 5.56587 0.0421753C8.62703 0.0421753 11.1086 2.52374 11.1086 5.58491ZM1.02082 5.58491C1.02082 8.09507 3.05571 10.1299 5.56587 10.1299C8.07602 10.1299 10.1109 8.09507 10.1109 5.58491C10.1109 3.07475 8.07602 1.03987 5.56587 1.03987C3.05571 1.03987 1.02082 3.07475 1.02082 5.58491Z" fill="black"/>
<path d="M6.00784 4.81321L6.00792 4.81297L6.00172 4.81142C5.73626 4.74506 5.47346 4.61282 5.27822 4.41758L5.26434 4.40371L5.24572 4.3975C5.08576 4.34418 5.02543 4.18077 5.02543 4.06067C5.02543 4.00345 5.04013 3.92832 5.07023 3.8606C5.10079 3.79184 5.14205 3.74197 5.18732 3.71933L5.18761 3.71991L5.19626 3.71414C5.30185 3.64375 5.39883 3.57945 5.4939 3.53984C5.5873 3.50092 5.6694 3.48998 5.74741 3.51599L5.76021 3.52025H5.7737C6.16071 3.52025 6.48343 3.71368 6.67717 3.97199L6.74368 4.06067L6.81019 3.97199L7.43375 3.14058L7.47701 3.08289L7.42603 3.0319C7.21235 2.81822 6.99874 2.67582 6.79185 2.53789L6.7898 2.53652C6.58673 2.40115 6.32668 2.32922 6.06469 2.31669V1.42787V1.34473H5.98155H5.15014H5.067V1.42787V2.3313C4.72409 2.41635 4.38982 2.62489 4.12138 2.89333L4.12101 2.89297L4.11524 2.90019C3.8349 3.25061 3.60953 3.68791 3.68133 4.13677C3.68283 4.56677 3.82668 5.00259 4.12138 5.29729C4.42967 5.60559 4.84388 5.80773 5.21344 5.98809C5.27373 6.01751 5.33283 6.04636 5.3901 6.07499L5.38972 6.07574L5.40099 6.0795C5.59861 6.14538 5.8652 6.27807 6.06694 6.41153C6.18278 6.53111 6.24483 6.71299 6.24483 6.90132C6.24483 7.08748 6.18373 7.27725 6.05555 7.47181C5.86786 7.6557 5.61744 7.71887 5.42728 7.71887C5.15778 7.71887 4.83905 7.65048 4.65466 7.46609L4.64884 7.46027L4.64199 7.4557C4.44327 7.32322 4.24325 7.12321 4.11077 6.92449L4.05171 6.83588L3.98008 6.91468L3.28724 7.6768L3.24102 7.72765L3.28224 7.78261C3.49482 8.06605 3.70827 8.2795 3.99171 8.49208L3.99145 8.49244L3.99882 8.49686C4.32428 8.69214 4.72483 8.89684 5.13629 8.92186V9.74197V9.82511H5.21943H5.98155H6.06469V9.74197V8.77179C6.46961 8.68852 6.80797 8.47886 7.0796 8.20722C7.44314 7.84369 7.65823 7.26754 7.65823 6.76275C7.65823 6.33517 7.51687 5.82247 7.14568 5.52292C6.79125 5.16935 6.43458 4.95545 6.00784 4.81321Z" fill="url(#paint0_linear_0_206)" stroke="#D38817" stroke-width="0.166282"/>
<defs>
<linearGradient id="paint0_linear_0_206" x1="5.46192" y1="1.42787" x2="5.46192" y2="9.74197" gradientUnits="userSpaceOnUse">
<stop stop-color="#FCAA49"/>
<stop offset="1" stop-color="#F38A0E"/>
</linearGradient>
</defs>
</svg>
