<svg width="29" height="29" viewBox="0 0 29 29" fill="none" xmlns="http://www.w3.org/2000/svg">
<g clip-path="url(#clip0_1_1134)">
<rect opacity="0.5" x="28.6824" y="28.248" width="28.248" height="28.248" rx="5" transform="rotate(-180 28.6824 28.248)" fill="white"/>
<path d="M21.4454 14.5177L7.93653 14.5177C7.7574 14.5177 7.58559 14.4465 7.45892 14.3198C7.33225 14.1932 7.26109 14.0214 7.26109 13.8422C7.26109 13.6631 7.33225 13.4913 7.45892 13.3646C7.58559 13.2379 7.7574 13.1668 7.93653 13.1668L21.4454 13.1668C21.6245 13.1668 21.7963 13.2379 21.923 13.3646C22.0497 13.4913 22.1208 13.6631 22.1208 13.8422C22.1208 14.0214 22.0497 14.1932 21.923 14.3198C21.7963 14.4465 21.6245 14.5177 21.4454 14.5177Z" fill="black" stroke="black" stroke-width="1.177"/>
<path d="M21.1661 13.8422L15.564 8.24146C15.4372 8.11463 15.3659 7.94261 15.3659 7.76325C15.3659 7.58388 15.4372 7.41186 15.564 7.28503C15.6908 7.1582 15.8628 7.08695 16.0422 7.08695C16.2216 7.08695 16.3936 7.1582 16.5204 7.28503L22.5994 13.364C22.6623 13.4268 22.7122 13.5013 22.7463 13.5834C22.7803 13.6654 22.7979 13.7534 22.7979 13.8422C22.7979 13.9311 22.7803 14.0191 22.7463 14.1011C22.7122 14.1832 22.6623 14.2577 22.5994 14.3205L16.5204 20.3995C16.3936 20.5263 16.2216 20.5975 16.0422 20.5975C15.8628 20.5975 15.6908 20.5263 15.564 20.3995C15.4372 20.2726 15.3659 20.1006 15.3659 19.9212C15.3659 19.7419 15.4372 19.5699 15.564 19.443L21.1661 13.8422Z" fill="black" stroke="black" stroke-width="1.177"/>
</g>
<defs>
<clipPath id="clip0_1_1134">
<rect width="28.248" height="28.248" fill="white" transform="matrix(-1 0 0 -1 28.6821 28.248)"/>
</clipPath>
</defs>
</svg>
