<svg width="58" height="59" viewBox="0 0 58 59" fill="none" xmlns="http://www.w3.org/2000/svg">
<rect x="0.200012" y="0.75" width="57.6" height="57.6" rx="28.8" fill="black"/>
<path fill-rule="evenodd" clip-rule="evenodd" d="M18.448 25.2545C18.448 24.103 19.1835 23.1241 20.2101 22.7609V19.1047H14.9583C14.4756 19.1047 14.0833 19.4969 14.0833 19.9797V40.9797C14.0833 41.4624 14.4756 41.8547 14.9583 41.8547H26.3036C26.7868 41.8547 27.1786 42.2464 27.1786 42.7297C27.1786 43.2129 26.7868 43.6047 26.3036 43.6047H14.9583C13.5091 43.6047 12.3333 42.4289 12.3333 40.9797V19.9797C12.3333 18.5304 13.5091 17.3547 14.9583 17.3547H20.2101V15.625C20.2101 15.1417 20.6018 14.75 21.0851 14.75C21.5683 14.75 21.9601 15.1417 21.9601 15.625V17.3547H29.8351C30.3183 17.3547 30.7101 17.7464 30.7101 18.2297L30.7098 18.2523L30.7101 18.275V33.2088C31.7452 33.5679 32.4882 34.5517 32.4882 35.7092C32.4882 36.8667 31.7453 37.8494 30.7101 38.2081V41.8547H44.7083C45.1911 41.8547 45.5833 41.4624 45.5833 40.9797V19.9797C45.5833 19.4969 45.1911 19.1047 44.7083 19.1047H33.3351C32.8518 19.1047 32.4601 18.7129 32.4601 18.2297C32.4601 17.7464 32.8518 17.3547 33.3351 17.3547H37.7101V15.6408C37.7101 15.1575 38.1018 14.7658 38.5851 14.7658C39.0683 14.7658 39.4601 15.1575 39.4601 15.6408V17.3547H44.7083C46.1576 17.3547 47.3333 18.5304 47.3333 19.9797V40.9797C47.3333 42.4289 46.1576 43.6047 44.7083 43.6047H30.7101V45.2687C30.7101 45.752 30.3183 46.1437 29.8351 46.1437C29.3518 46.1437 28.9601 45.752 28.9601 45.2687V38.2028C27.9335 37.8397 27.198 36.8608 27.198 35.7092C27.198 34.5576 27.9335 33.5776 28.9601 33.2141V19.1047H21.9601V22.7557C22.9953 23.1144 23.7382 24.0971 23.7382 25.2545C23.7382 26.4121 22.9952 27.3958 21.9601 27.755V39.1887C21.9601 39.672 21.5683 40.0637 21.0851 40.0637C20.6018 40.0637 20.2101 39.672 20.2101 39.1887V27.7497C19.1835 27.3861 18.448 26.4061 18.448 25.2545ZM21.1192 26.1502C21.1079 26.1497 21.0965 26.1495 21.0851 26.1495C21.0761 26.1495 21.067 26.1496 21.0581 26.1499C20.5805 26.1319 20.198 25.738 20.198 25.2545C20.198 24.7603 20.5982 24.3603 21.0922 24.3603C21.5878 24.3603 21.9882 24.7601 21.9882 25.2545C21.9882 25.7405 21.6018 26.1359 21.1192 26.1502ZM37.7101 32.9997C36.6835 32.6361 35.948 31.6561 35.948 30.5045C35.948 29.353 36.6835 28.3741 37.7101 28.0109V21.7745C37.7101 21.2912 38.1018 20.8995 38.5851 20.8995C39.0683 20.8995 39.4601 21.2912 39.4601 21.7745V28.0057C40.4953 28.3644 41.2382 29.3471 41.2382 30.5045C41.2382 31.6621 40.4952 32.6458 39.4601 33.005V39.1887C39.4601 39.672 39.0683 40.0637 38.5851 40.0637C38.1018 40.0637 37.7101 39.672 37.7101 39.1887V32.9997ZM39.4882 30.5045C39.4882 30.0101 39.0878 29.6103 38.5922 29.6103C38.0982 29.6103 37.698 30.0103 37.698 30.5045C37.698 30.9994 38.0988 31.4005 38.5922 31.4005C39.0872 31.4005 39.4882 30.9995 39.4882 30.5045ZM30.7382 35.7092C30.7382 35.2142 30.3372 34.8132 29.8422 34.8132C29.3488 34.8132 28.948 35.2144 28.948 35.7092C28.948 36.2035 29.3482 36.6034 29.8422 36.6034C30.3378 36.6034 30.7382 36.2037 30.7382 35.7092Z" fill="white"/>
</svg>
