<svg width="14" height="14" viewBox="0 0 14 14" fill="none" xmlns="http://www.w3.org/2000/svg">
<path d="M8.98744 4.4875L5.62505 7.85097L4.5126 6.73755L4.51253 6.73747C4.43701 6.66196 4.34737 6.60206 4.2487 6.56119C4.15004 6.52032 4.04429 6.49929 3.9375 6.49929C3.72182 6.49929 3.51498 6.58497 3.36247 6.73747C3.28696 6.81299 3.22706 6.90263 3.18619 7.0013C3.14532 7.09996 3.12429 7.20571 3.12429 7.3125C3.12429 7.41929 3.14532 7.52504 3.18619 7.6237C3.22706 7.72237 3.28696 7.81201 3.36247 7.88753L5.04975 9.5748C5.12522 9.65047 5.21489 9.7105 5.3136 9.75146C5.41231 9.79242 5.51813 9.81351 5.625 9.81351C5.73187 9.81351 5.83769 9.79242 5.9364 9.75146C6.03511 9.7105 6.12478 9.65047 6.20025 9.5748L10.1375 5.63753C10.29 5.48502 10.3757 5.27818 10.3757 5.0625C10.3757 4.84682 10.29 4.63998 10.1375 4.48747C9.98502 4.33497 9.77818 4.24929 9.5625 4.24929C9.34682 4.24929 9.13998 4.33497 8.98747 4.48747L8.98744 4.4875ZM1.00054 1.00054C1.4811 0.519977 2.13288 0.25 2.8125 0.25H10.6875C11.3671 0.25 12.0189 0.519977 12.4995 1.00054C12.98 1.4811 13.25 2.13288 13.25 2.8125V10.6875C13.25 11.3671 12.98 12.0189 12.4995 12.4995C12.0189 12.98 11.3671 13.25 10.6875 13.25H2.8125C2.13288 13.25 1.4811 12.98 1.00054 12.4995C0.519977 12.0189 0.25 11.3671 0.25 10.6875V2.8125C0.25 2.13288 0.519977 1.4811 1.00054 1.00054Z" fill="white" stroke="#696969" stroke-width="0.5"/>
<rect x="2.75" y="1.75" width="9" height="9" fill="white"/>
</svg>
