<svg width="20" height="20" viewBox="0 0 20 20" fill="none" xmlns="http://www.w3.org/2000/svg">
<path fill-rule="evenodd" clip-rule="evenodd" d="M3.20755 13.8527C2.17407 12.7974 1.4731 11.4619 1.19159 10.0119C0.907757 8.55785 1.05351 7.05264 1.61104 5.68005C2.16381 4.31517 3.10752 3.14405 4.32368 2.31374C6.79118 0.628493 10.0395 0.628493 12.507 2.31374C13.7232 3.14405 14.6669 4.31517 15.2196 5.68005C15.7772 7.05264 15.923 8.55785 15.6391 10.0119C15.3576 11.4619 14.6567 12.7974 13.6231 13.8527C12.2545 15.2571 10.3765 16.0493 8.4153 16.0493C6.45419 16.0493 4.57624 15.2571 3.20755 13.8527Z" stroke="white" stroke-width="1.5" stroke-linecap="round" stroke-linejoin="round"/>
<path d="M8.79706 4.0557C8.30484 4.10785 7.94813 4.54916 8.00023 5.0414C8.05245 5.53363 8.49377 5.89037 8.98599 5.83822L8.79706 4.0557ZM11.0095 7.0303C11.2025 7.48616 11.7284 7.69923 12.1843 7.50624C12.64 7.31327 12.8531 6.78732 12.6601 6.3315L11.0095 7.0303ZM14.7385 13.477C14.3882 13.1274 13.8207 13.1279 13.471 13.4782C13.1213 13.8285 13.1219 14.396 13.4721 14.7457L14.7385 13.477ZM17.5208 18.7871C17.8711 19.1369 18.4385 19.1364 18.7883 18.7861C19.138 18.4357 19.1375 17.8683 18.7871 17.5185L17.5208 18.7871ZM8.98599 5.83822C9.84937 5.74673 10.6711 6.23077 11.0095 7.0303L12.6601 6.3315C12.014 4.80512 10.4454 3.88104 8.79706 4.0557L8.98599 5.83822ZM13.4721 14.7457L17.5208 18.7871L18.7871 17.5185L14.7385 13.477L13.4721 14.7457Z" fill="white"/>
</svg>
