<svg width="20" height="19" viewBox="0 0 20 19" fill="none" xmlns="http://www.w3.org/2000/svg">
<path fill-rule="evenodd" clip-rule="evenodd" d="M3.20755 13.8028C2.17407 12.7475 1.4731 11.4121 1.19159 9.96212C0.907757 8.50805 1.05351 7.00283 1.61104 5.63024C2.16381 4.26537 3.10752 3.09424 4.32368 2.26393C6.79118 0.578689 10.0395 0.578689 12.507 2.26393C13.7232 3.09424 14.6669 4.26537 15.2196 5.63024C15.7772 7.00283 15.923 8.50805 15.6391 9.96212C15.3576 11.4121 14.6567 12.7475 13.6231 13.8028C12.2545 15.2073 10.3765 15.9995 8.4153 15.9995C6.45419 15.9995 4.57624 15.2073 3.20755 13.8028Z" stroke="#0D0D0D" stroke-width="1.5" stroke-linecap="round" stroke-linejoin="round"/>
<path d="M8.79706 4.00588C8.30484 4.05803 7.94813 4.49934 8.00023 4.99158C8.05245 5.48381 8.49377 5.84055 8.98599 5.7884L8.79706 4.00588ZM11.0095 6.98048C11.2025 7.43634 11.7284 7.64941 12.1843 7.45642C12.64 7.26345 12.8531 6.7375 12.6601 6.28168L11.0095 6.98048ZM14.7385 13.4272C14.3882 13.0776 13.8207 13.078 13.471 13.4284C13.1213 13.7787 13.1219 14.3462 13.4721 14.6958L14.7385 13.4272ZM17.5208 18.7373C17.8711 19.0871 18.4385 19.0866 18.7883 18.7362C19.138 18.3859 19.1375 17.8185 18.7871 17.4687L17.5208 18.7373ZM8.98599 5.7884C9.84937 5.69691 10.6711 6.18095 11.0095 6.98048L12.6601 6.28168C12.014 4.7553 10.4454 3.83122 8.79706 4.00588L8.98599 5.7884ZM13.4721 14.6958L17.5208 18.7373L18.7871 17.4687L14.7385 13.4272L13.4721 14.6958Z" fill="#0D0D0D"/>
</svg>
