<svg width="9" height="6" viewBox="0 0 9 6" fill="none" xmlns="http://www.w3.org/2000/svg">
<path d="M8.09976 0.0105295L0.899554 0.0105295C0.826656 0.0107584 0.7552 0.0308642 0.692879 0.0686827C0.630557 0.106501 0.579729 0.1606 0.545866 0.225157C0.512004 0.289713 0.496389 0.362284 0.500702 0.435055C0.505016 0.507826 0.529094 0.578043 0.570345 0.638148L4.17045 5.8383C4.31965 6.0539 4.67886 6.0539 4.82847 5.8383L8.42857 0.638148C8.47024 0.578169 8.49468 0.507916 8.49922 0.435023C8.50377 0.362131 8.48826 0.289387 8.45436 0.224693C8.42047 0.159999 8.3695 0.105831 8.30698 0.0680737C8.24446 0.0303164 8.17279 0.0104146 8.09976 0.0105295Z" fill="black"/>
</svg>
