<svg width="35" height="29" viewBox="0 0 35 29" fill="none" xmlns="http://www.w3.org/2000/svg">
<path d="M23.6875 23.8125H1.1875C0.877 23.8125 0.625 23.5605 0.625 23.25V7.5C0.625 7.1895 0.877 6.9375 1.1875 6.9375H20.3125C20.623 6.9375 20.875 7.1895 20.875 7.5C20.875 7.8105 20.623 8.0625 20.3125 8.0625H1.75V22.6875H23.6875C23.998 22.6875 24.25 22.9395 24.25 23.25C24.25 23.5605 23.998 23.8125 23.6875 23.8125Z" fill="#ACACAC"/>
<path d="M21.4375 17.0625C21.4375 15.7856 20.5702 14.8552 18.8602 14.2972L18.733 14.2556C18.0918 14.0464 17.5 13.7651 17.5 13.125C17.5 12.4624 17.9624 12 18.625 12C19.417 12 19.9458 12.4252 19.9503 12.4297C20.1899 12.63 20.5432 12.5985 20.7434 12.3622C20.9437 12.1237 20.9122 11.7705 20.6748 11.5703C20.6467 11.5466 20.0729 11.0786 19.1774 10.9267C19.1785 10.9087 19.1875 10.8941 19.1875 10.875V10.3125C19.1875 10.002 18.9355 9.75 18.625 9.75C18.3145 9.75 18.0625 10.002 18.0625 10.3125V10.875C18.0625 10.8986 18.0738 10.92 18.0772 10.9448C17.0782 11.1776 16.375 12.0337 16.375 13.125C16.375 14.6707 17.887 15.1646 18.3832 15.3244L18.5103 15.366C19.7242 15.762 20.3125 16.3177 20.3125 17.0625C20.3125 18.0244 19.5869 18.75 18.625 18.75C17.581 18.75 16.9837 18.0615 16.825 17.85C16.6383 17.6003 16.285 17.5519 16.0375 17.7364C15.7878 17.9231 15.7372 18.2752 15.9239 18.5239C16.132 18.8017 16.8453 19.6275 18.0704 19.8289C18.0693 19.8446 18.0614 19.8581 18.0614 19.8739V20.4375C18.0614 20.748 18.3134 21 18.6239 21C18.9344 21 19.1864 20.748 19.1864 20.4375V19.875C19.1864 19.8559 19.1774 19.8401 19.1752 19.821C20.4802 19.5712 21.4375 18.4496 21.4375 17.0625Z" fill="#ACACAC"/>
<path d="M23.6875 23.8125C23.377 23.8125 23.125 23.5605 23.125 23.25C23.125 22.9395 23.377 22.6875 23.6875 22.6875C25.2389 22.6875 26.5 21.4264 26.5 19.875V16.5C26.5 16.1895 26.752 15.9375 27.0625 15.9375C27.373 15.9375 27.625 16.1895 27.625 16.5V19.875C27.625 22.0462 25.8587 23.8125 23.6875 23.8125Z" fill="#ACACAC"/>
<path d="M27.0625 20.4375C26.752 20.4375 26.5 20.1855 26.5 19.875C26.5 18.3236 25.2389 17.0625 23.6875 17.0625H22.5625C22.252 17.0625 22 16.8105 22 16.5V0.75C22 0.4395 22.252 0.1875 22.5625 0.1875H23.6875C25.8587 0.1875 27.625 1.95375 27.625 4.125V19.875C27.625 20.1855 27.373 20.4375 27.0625 20.4375ZM23.125 15.9375H23.6875C24.7889 15.9375 25.7845 16.3909 26.5 17.1221V4.125C26.5 2.57363 25.2389 1.3125 23.6875 1.3125H23.125V15.9375Z" fill="#ACACAC"/>
<path d="M33.8125 28.3125H1.1875C0.877 28.3125 0.625 28.0605 0.625 27.75C0.625 27.4395 0.877 27.1875 1.1875 27.1875H33.8125C34.123 27.1875 34.375 27.4395 34.375 27.75C34.375 28.0605 34.123 28.3125 33.8125 28.3125Z" fill="#ACACAC"/>
<path d="M33.8125 26.0625H1.1875C0.877 26.0625 0.625 25.8105 0.625 25.5C0.625 25.1895 0.877 24.9375 1.1875 24.9375H33.25V10.3125H29.3125C29.002 10.3125 28.75 10.0605 28.75 9.75C28.75 9.4395 29.002 9.1875 29.3125 9.1875H33.8125C34.123 9.1875 34.375 9.4395 34.375 9.75V25.5C34.375 25.8105 34.123 26.0625 33.8125 26.0625Z" fill="#ACACAC"/>
</svg>
