<svg width="21" height="22" viewBox="0 0 21 22" fill="none" xmlns="http://www.w3.org/2000/svg">
<path d="M11.405 11.8508L8.69001 14.5658C8.55567 14.7004 8.48031 14.8828 8.4805 15.073C8.48069 15.2631 8.55641 15.4454 8.691 15.5798C8.8256 15.7141 9.00805 15.7895 9.19821 15.7893C9.38837 15.7891 9.57067 15.7134 9.705 15.5788L13.642 11.6408C13.7761 11.5065 13.8514 11.3245 13.8514 11.1348C13.8514 10.945 13.7761 10.763 13.642 10.6288L9.705 6.69077C9.63941 6.62059 9.56037 6.56432 9.47258 6.52533C9.38479 6.48633 9.29005 6.4654 9.194 6.46378C9.09795 6.46216 9.00256 6.47988 8.91351 6.51589C8.82445 6.5519 8.74355 6.60546 8.67563 6.67339C8.6077 6.74131 8.55414 6.82221 8.51813 6.91127C8.48212 7.00032 8.4644 7.09571 8.46602 7.19176C8.46764 7.28781 8.48857 7.38255 8.52757 7.47034C8.56656 7.55813 8.62283 7.63717 8.693 7.70277L11.405 10.4188L3.465 10.4188C3.27511 10.4188 3.09299 10.4942 2.95872 10.6285C2.82444 10.7628 2.749 10.9449 2.749 11.1348C2.749 11.3247 2.82444 11.5068 2.95872 11.6411C3.09299 11.7753 3.27511 11.8508 3.465 11.8508L11.405 11.8508ZM9.912 17.5778C9.72211 17.5778 9.53999 17.6532 9.40572 17.7875C9.27144 17.9218 9.196 18.1039 9.196 18.2938C9.196 18.4837 9.27144 18.6658 9.40572 18.8001C9.53999 18.9343 9.72211 19.0098 9.912 19.0098H16.712C16.9474 19.0099 17.1805 18.9636 17.3981 18.8736C17.6156 18.7836 17.8133 18.6517 17.9798 18.4853C18.1463 18.3188 18.2784 18.1212 18.3685 17.9038C18.4586 17.6863 18.505 17.4532 18.505 17.2178L18.505 5.05177C18.505 4.81635 18.4586 4.58325 18.3685 4.36577C18.2784 4.14829 18.1463 3.95069 17.9798 3.78428C17.8133 3.61786 17.6156 3.48588 17.3981 3.39589C17.1805 3.30589 16.9474 3.25963 16.712 3.25977L9.912 3.25977C9.72211 3.25977 9.53999 3.3352 9.40572 3.46948C9.27144 3.60375 9.196 3.78587 9.196 3.97577C9.196 4.16566 9.27144 4.34778 9.40572 4.48205C9.53999 4.61633 9.72211 4.69176 9.912 4.69176L16.712 4.69176C16.7594 4.69163 16.8063 4.70085 16.8501 4.71888C16.8939 4.73691 16.9337 4.76341 16.9672 4.79685C17.0007 4.83029 17.0274 4.87003 17.0455 4.91377C17.0637 4.95751 17.073 5.00441 17.073 5.05177V17.2178C17.073 17.2651 17.0637 17.312 17.0455 17.3558C17.0274 17.3995 17.0007 17.4392 16.9672 17.4727C16.9337 17.5061 16.8939 17.5326 16.8501 17.5506C16.8063 17.5687 16.7594 17.5779 16.712 17.5778H9.912Z" fill="#72B54D"/>
</svg>
