<svg width="15" height="16" viewBox="0 0 15 16" fill="none" xmlns="http://www.w3.org/2000/svg">
<path d="M9.66667 2.44444V1M9.66667 2.44444V3.88889M9.66667 2.44444H6.41667M1 6.77778V13.2778C1 13.6609 1.15218 14.0283 1.42307 14.2992C1.69395 14.57 2.06135 14.7222 2.44444 14.7222H12.5556C12.9386 14.7222 13.306 14.57 13.5769 14.2992C13.8478 14.0283 14 13.6609 14 13.2778V6.77778M1 6.77778H14M1 6.77778V3.88889C1 3.5058 1.15218 3.1384 1.42307 2.86751C1.69395 2.59663 2.06135 2.44444 2.44444 2.44444H3.88889M14 6.77778V3.88889C14 3.5058 13.8478 3.1384 13.5769 2.86751C13.306 2.59663 12.9386 2.44444 12.5556 2.44444H12.1944M3.88889 1V3.88889" stroke="black" stroke-width="1.4" stroke-linecap="round" stroke-linejoin="round"/>
</svg>
