<svg width="17" height="17" viewBox="0 0 17 17" fill="none" xmlns="http://www.w3.org/2000/svg">
<path d="M15.9497 8.12459H5.93214M2.39619 8.12459H0.949707M2.39619 8.12459C2.39619 7.65581 2.58242 7.20622 2.9139 6.87474C3.24539 6.54325 3.69497 6.35703 4.16376 6.35703C4.63255 6.35703 5.08214 6.54325 5.41362 6.87474C5.7451 7.20622 5.93133 7.65581 5.93133 8.12459C5.93133 8.59338 5.7451 9.04297 5.41362 9.37445C5.08214 9.70594 4.63255 9.89216 4.16376 9.89216C3.69497 9.89216 3.24539 9.70594 2.9139 9.37445C2.58242 9.04297 2.39619 8.59338 2.39619 8.12459ZM15.9497 13.4816H11.2892M11.2892 13.4816C11.2892 13.9505 11.1025 14.4006 10.7709 14.7322C10.4394 15.0637 9.98968 15.25 9.52079 15.25C9.052 15.25 8.60241 15.063 8.27093 14.7315C7.93945 14.4 7.75322 13.9504 7.75322 13.4816M11.2892 13.4816C11.2892 13.0127 11.1025 12.5634 10.7709 12.2319C10.4394 11.9003 9.98968 11.7141 9.52079 11.7141C9.052 11.7141 8.60241 11.9003 8.27093 12.2318C7.93945 12.5632 7.75322 13.0128 7.75322 13.4816M7.75322 13.4816H0.949707M15.9497 2.76757H13.4321M9.89619 2.76757H0.949707M9.89619 2.76757C9.89619 2.29878 10.0824 1.84919 10.4139 1.51771C10.7454 1.18623 11.195 1 11.6638 1C11.8959 1 12.1257 1.04572 12.3402 1.13455C12.5546 1.22338 12.7495 1.35357 12.9136 1.51771C13.0778 1.68184 13.208 1.8767 13.2968 2.09115C13.3856 2.3056 13.4313 2.53545 13.4313 2.76757C13.4313 2.99969 13.3856 3.22954 13.2968 3.44399C13.208 3.65844 13.0778 3.85329 12.9136 4.01743C12.7495 4.18156 12.5546 4.31176 12.3402 4.40059C12.1257 4.48942 11.8959 4.53513 11.6638 4.53513C11.195 4.53513 10.7454 4.34891 10.4139 4.01743C10.0824 3.68594 9.89619 3.23636 9.89619 2.76757Z" stroke="black" stroke-width="1.8" stroke-miterlimit="10" stroke-linecap="round"/>
</svg>
