<svg width="20" height="12" viewBox="0 0 20 12" fill="none" xmlns="http://www.w3.org/2000/svg">
<path d="M18.64 2.08H1.36002C1.10542 2.08 0.861237 1.97886 0.681202 1.79883C0.501167 1.61879 0.400024 1.37461 0.400024 1.12C0.400024 0.865396 0.501167 0.621216 0.681202 0.441181C0.861237 0.261146 1.10542 0.160004 1.36002 0.160004H18.64C18.8946 0.160004 19.1388 0.261146 19.3188 0.441181C19.4989 0.621216 19.6 0.865396 19.6 1.12C19.6 1.37461 19.4989 1.61879 19.3188 1.79883C19.1388 1.97886 18.8946 2.08 18.64 2.08ZM15.44 6.56H4.56002C4.30542 6.56 4.06124 6.45886 3.8812 6.27883C3.70117 6.09879 3.60002 5.85461 3.60002 5.6C3.60002 5.3454 3.70117 5.10122 3.8812 4.92118C4.06124 4.74115 4.30542 4.64 4.56002 4.64H15.44C15.6946 4.64 15.9388 4.74115 16.1188 4.92118C16.2989 5.10122 16.4 5.3454 16.4 5.6C16.4 5.85461 16.2989 6.09879 16.1188 6.27883C15.9388 6.45886 15.6946 6.56 15.44 6.56ZM11.6 11.04H8.40002C8.14542 11.04 7.90124 10.9389 7.7212 10.7588C7.54117 10.5788 7.44002 10.3346 7.44002 10.08C7.44002 9.8254 7.54117 9.58122 7.7212 9.40118C7.90124 9.22115 8.14542 9.12 8.40002 9.12H11.6C11.8546 9.12 12.0988 9.22115 12.2788 9.40118C12.4589 9.58122 12.56 9.8254 12.56 10.08C12.56 10.3346 12.4589 10.5788 12.2788 10.7588C12.0988 10.9389 11.8546 11.04 11.6 11.04Z" fill="black"/>
</svg>
