<svg width="22" height="24" viewBox="0 0 22 24" fill="none" xmlns="http://www.w3.org/2000/svg">
<path d="M10.9966 15.2381C12.8234 15.2381 14.3043 13.7573 14.3043 11.9305C14.3043 10.1037 12.8234 8.62286 10.9966 8.62286C9.16985 8.62286 7.68896 10.1037 7.68896 11.9305C7.68896 13.7573 9.16985 15.2381 10.9966 15.2381Z" stroke="#BBBBBB" stroke-width="1.21889"/>
<path d="M1.80272 10.4302C2.32373 10.7575 2.65896 11.3152 2.65896 11.9304C2.65895 12.5457 2.32372 13.1034 1.80272 13.4307C1.44819 13.6535 1.21976 13.8315 1.05725 14.0433C0.701222 14.5074 0.544098 15.0937 0.620438 15.6735C0.677683 16.1084 0.934543 16.5533 1.44826 17.4431C1.962 18.3329 2.21886 18.7778 2.56683 19.0448C3.03081 19.4008 3.61721 19.5579 4.19704 19.4816C4.46168 19.4468 4.73005 19.338 5.10016 19.1424C5.64424 18.8548 6.2949 18.8434 6.82784 19.1511C7.36072 19.4588 7.67605 20.0279 7.69904 20.6428C7.71469 21.0613 7.75467 21.3481 7.85683 21.5948C8.08064 22.135 8.50992 22.5644 9.05019 22.7882C9.45548 22.956 9.96916 22.956 10.9966 22.956C12.0241 22.956 12.5378 22.956 12.9431 22.7882C13.4833 22.5644 13.9126 22.135 14.1365 21.5948C14.2386 21.3481 14.2786 21.0612 14.2942 20.6429C14.3172 20.0279 14.6325 19.4588 15.1655 19.1511C15.6983 18.8435 16.3489 18.8549 16.8929 19.1425C17.2632 19.3381 17.5315 19.4469 17.7962 19.4817C18.376 19.5581 18.9624 19.4009 19.4264 19.0449C19.7743 18.778 20.0312 18.333 20.545 17.4432C20.7737 17.0471 20.9515 16.7392 21.0834 16.4809M20.1904 13.4308C19.6695 13.1035 19.3343 12.5458 19.3342 11.9306C19.3342 11.3153 19.6695 10.7575 20.1904 10.4302C20.545 10.2074 20.7734 10.0294 20.9359 9.81758C21.2919 9.35361 21.449 8.76721 21.3727 8.18738C21.3155 7.75251 21.0586 7.30761 20.5448 6.41782C20.0311 5.52802 19.7742 5.08313 19.4263 4.81612C18.9623 4.46009 18.3759 4.30297 17.796 4.3793C17.5314 4.41415 17.2631 4.52293 16.8929 4.71855C16.3488 5.00611 15.6982 5.01758 15.1654 4.70988C14.6325 4.4022 14.3172 3.83306 14.2942 3.21821C14.2786 2.79978 14.2386 2.51293 14.1365 2.26627C13.9126 1.72596 13.4833 1.29669 12.9431 1.07288C12.5378 0.905029 12.0241 0.905029 10.9966 0.905029C9.96916 0.905029 9.45548 0.905029 9.05019 1.07288C8.50992 1.29669 8.08064 1.72596 7.85683 2.26627C7.75467 2.51291 7.71469 2.79973 7.69904 3.21811C7.67604 3.83302 7.3607 4.40221 6.82779 4.70988C6.29489 5.01755 5.64429 5.00605 5.10026 4.71852C4.73011 4.52288 4.46171 4.4141 4.19705 4.37924C3.61722 4.30292 3.03082 4.46004 2.56684 4.81606C2.21887 5.08308 1.96201 5.52798 1.44828 6.41777C1.21957 6.8139 1.04178 7.12184 0.909835 7.37999" stroke="#BBBBBB" stroke-width="1.21889" stroke-linecap="round"/>
</svg>
