<svg width="15" height="20" viewBox="0 0 15 20" fill="none" xmlns="http://www.w3.org/2000/svg">
<path d="M10.4651 10.64C10.3455 10.5886 10.2507 10.4925 10.2008 10.3723C10.151 10.252 10.1499 10.1171 10.198 9.99614C10.246 9.87517 10.3394 9.77771 10.4581 9.72446C10.5769 9.67122 10.7118 9.66639 10.8341 9.711C11.2407 9.87229 11.6072 10.1206 11.9077 10.4384C12.2083 10.7562 12.4357 11.136 12.5741 11.551L13.9081 15.551C14.0585 16.0021 14.0995 16.4826 14.0278 16.9527C13.956 17.4228 13.7735 17.8691 13.4953 18.2548C13.2172 18.6405 12.8513 18.9546 12.4279 19.1711C12.0044 19.3876 11.5356 19.5003 11.0601 19.5H3.00006C2.52467 19.5 2.05608 19.387 1.63292 19.1704C1.20976 18.9538 0.844139 18.6397 0.566192 18.254C0.288246 17.8684 0.105931 17.4222 0.0342758 16.9522C-0.0373798 16.4822 0.00367483 16.002 0.154056 15.551L1.48706 11.551C1.62781 11.1285 1.86084 10.7427 2.16924 10.4215C2.47764 10.1003 2.85367 9.85181 3.27006 9.694C3.33145 9.67069 3.39683 9.6597 3.46247 9.66166C3.52811 9.66362 3.59272 9.67849 3.65262 9.70542C3.71251 9.73235 3.76651 9.77081 3.81154 9.81861C3.85657 9.86641 3.89175 9.92261 3.91506 9.984C3.93837 10.0454 3.94935 10.1108 3.9474 10.1764C3.94544 10.2421 3.93057 10.3067 3.90364 10.3666C3.87671 10.4265 3.83825 10.4805 3.79045 10.5255C3.74265 10.5705 3.68645 10.6057 3.62506 10.629C3.34711 10.7341 3.0961 10.8999 2.89025 11.1142C2.6844 11.3285 2.5289 11.586 2.43506 11.868L1.10206 15.868C1.00191 16.1687 0.974654 16.4888 1.02252 16.8021C1.07039 17.1154 1.19201 17.4128 1.37737 17.6698C1.56273 17.9269 1.80652 18.1362 2.08864 18.2805C2.37077 18.4248 2.68315 18.5001 3.00006 18.5H11.0621C11.379 18.5 11.6914 18.4246 11.9735 18.2802C12.2556 18.1357 12.4993 17.9263 12.6846 17.6691C12.8698 17.412 12.9913 17.1145 13.0391 16.8011C13.0868 16.4878 13.0594 16.1676 12.9591 15.867L11.6271 11.867C11.5347 11.5904 11.3831 11.3374 11.1827 11.1256C10.9823 10.9139 10.7381 10.7485 10.4671 10.641L10.4651 10.64Z" fill="white"/>
<path d="M7.5 0C3.9161 0 1.00007 2.91603 1.00007 6.49587C0.976504 11.7324 7.253 16.0743 7.5 16.2498C7.5 16.2498 14.0235 11.7324 13.9999 6.49994C13.9999 2.91603 11.0839 0 7.5 0ZM7.5 9.7499C5.70439 9.7499 4.25003 8.29554 4.25003 6.49994C4.25003 4.70433 5.70439 3.24997 7.5 3.24997C9.29561 3.24997 10.75 4.70433 10.75 6.49994C10.75 8.29554 9.29561 9.7499 7.5 9.7499Z" fill="white"/>
</svg>
