<svg width="34" height="34" viewBox="0 0 34 34" fill="none" xmlns="http://www.w3.org/2000/svg">
<path d="M29.2336 16.8333C29.2336 23.6817 23.682 29.2333 16.8336 29.2333C9.98526 29.2333 4.43359 23.6817 4.43359 16.8333C4.43359 9.98495 9.98526 4.43329 16.8336 4.43329C23.682 4.43329 29.2336 9.98495 29.2336 16.8333Z" stroke="#ACACAC" stroke-width="1.7"/>
<path d="M21.4836 16.8333C21.4836 19.4015 19.4018 21.4833 16.8336 21.4833C14.2654 21.4833 12.1836 19.4015 12.1836 16.8333C12.1836 14.2651 14.2654 12.1833 16.8336 12.1833C19.4018 12.1833 21.4836 14.2651 21.4836 16.8333Z" stroke="#ACACAC" stroke-width="1.7"/>
<path d="M1.3335 16.8333H4.4335" stroke="#ACACAC" stroke-width="1.7" stroke-linecap="round"/>
<path d="M29.2334 16.8333H32.3334" stroke="#ACACAC" stroke-width="1.7" stroke-linecap="round"/>
<path d="M16.8335 4.43331V1.33331" stroke="#ACACAC" stroke-width="1.7" stroke-linecap="round"/>
<path d="M16.8335 32.3333V29.2333" stroke="#ACACAC" stroke-width="1.7" stroke-linecap="round"/>
</svg>
