<svg width="21" height="20" viewBox="0 0 21 20" fill="none" xmlns="http://www.w3.org/2000/svg">
<g filter="url(#filter0_d_1_230)">
<path d="M8.13866 5.84633C8.13866 4.96017 8.4463 4.1521 8.92836 3.49783C8.54267 3.32567 8.10191 3.22922 7.65887 3.22922C5.94629 3.22922 4.54132 4.6342 4.54132 6.34679C4.54132 8.05938 5.94629 9.46437 7.65887 9.46437C8.37051 9.46437 9.00642 9.23251 9.54591 8.82846C8.67815 8.1168 8.13866 7.03781 8.13866 5.84633Z" fill="#4FE4F8" stroke="white" stroke-width="0.1275"/>
<path d="M12.0259 2.72653C11.3142 2.72653 10.6783 2.95839 10.1389 3.36244C10.986 4.0741 11.5438 5.15308 11.5438 6.34457C11.5438 7.23073 11.2362 8.0388 10.7541 8.69307C11.1398 8.86523 11.5806 8.96168 12.0236 8.96168C13.7362 8.96168 15.1412 7.55669 15.1412 5.84411C15.1412 4.13152 13.7591 2.72653 12.0259 2.72653Z" fill="#6CB6E4" stroke="white" stroke-width="0.1275"/>
<path d="M10.7742 6.34681C10.7742 7.07914 10.524 7.7518 10.0809 8.29129C9.35085 7.71277 8.88715 6.82892 8.88715 5.84638C8.88715 5.11406 9.13736 4.4414 9.58043 3.9019C10.3128 4.45975 10.7742 5.34588 10.7742 6.34681Z" fill="#6CB6E4" stroke="white" stroke-width="0.1275"/>
<path d="M17.2413 0.244827H15.2785C15.0673 0.244827 14.8928 0.416988 14.8928 0.63052C14.8928 0.844052 15.0649 1.01621 15.2785 1.01621H16.3L14.4911 2.84358C13.8184 2.28572 12.9713 1.95742 12.0278 1.95742C11.0452 1.95742 10.1614 2.32244 9.48644 2.91932C8.94695 2.63008 8.33171 2.45788 7.65906 2.45788C5.5218 2.45788 3.7702 4.19114 3.7702 6.34681C3.7702 8.36704 5.31062 10.0222 7.27344 10.2151V11.9277H6.42631C6.21513 11.9277 6.04062 12.0998 6.04062 12.3133C6.04062 12.5269 6.21278 12.699 6.42631 12.699H7.27344V13.716C7.27344 13.9272 7.4456 14.1017 7.65913 14.1017C7.87031 14.1017 8.04482 13.9296 8.04482 13.716V12.6967H8.89194C9.10313 12.6967 9.27763 12.5246 9.27763 12.311C9.27763 12.0975 9.10547 11.9253 8.89194 11.9253H8.04482V10.2128C8.87127 10.1347 9.60359 9.79035 10.2005 9.26921C10.74 9.55845 11.3552 9.73065 12.0278 9.73065C14.1651 9.73065 15.9144 7.97903 15.9144 5.84403C15.9144 4.90049 15.5862 4.05339 15.0283 3.38073L16.8557 1.55333V2.57262C16.8557 2.78381 17.0278 2.95831 17.2413 2.95831C17.4525 2.95831 17.627 2.78615 17.627 2.57262V0.63052C17.627 0.416988 17.4548 0.244827 17.2413 0.244827ZM12.0255 8.96392C11.5641 8.96392 11.1394 8.8675 10.756 8.69531C11.2565 8.04104 11.5457 7.23293 11.5457 6.34681C11.5457 5.15305 11.0062 4.07637 10.1407 3.36467C10.6596 2.96062 11.3138 2.72877 12.0278 2.72877C13.7403 2.72877 15.1453 4.13375 15.1453 5.84634C15.1453 7.55893 13.7587 8.96392 12.0255 8.96392ZM4.53927 6.34681C4.53927 4.63422 5.94425 3.22923 7.65682 3.22923C8.11825 3.22923 8.54297 3.32565 8.92635 3.49784C8.42589 4.15211 8.13665 4.96022 8.13665 5.84634C8.13665 7.0401 8.67614 8.11678 9.54162 8.82847C9.0228 9.23253 8.36854 9.46438 7.65458 9.46438C5.94421 9.46438 4.53927 8.05943 4.53927 6.34681ZM10.7766 6.34681C10.7766 7.07913 10.5264 7.75179 10.0833 8.29129C9.35103 7.71277 8.8896 6.82892 8.8896 5.84638C8.8896 5.11405 9.13981 4.44139 9.58289 3.9019C10.3129 4.45975 10.7766 5.34587 10.7766 6.34681Z" fill="#BEDAF4" stroke="white" stroke-width="0.1275"/>
<path d="M5.11982 6.493C5.0919 6.49618 5.06362 6.49319 5.03698 6.48425C5.01033 6.47532 4.98597 6.46065 4.96561 6.44128C4.94525 6.42191 4.92939 6.39832 4.91913 6.37216C4.90888 6.346 4.90449 6.31791 4.90627 6.28987C5.01585 4.53645 6.48606 3.88988 6.54806 3.86347C6.5947 3.8447 6.64685 3.84495 6.69332 3.86416C6.73978 3.88338 6.77687 3.92003 6.79662 3.96627C6.81637 4.0125 6.81722 4.06463 6.79897 4.11148C6.78073 4.15833 6.74485 4.19617 6.69903 4.21688C6.64518 4.24004 5.38429 4.80162 5.28905 6.31432C5.2862 6.35919 5.26771 6.40164 5.23679 6.43429C5.20587 6.46694 5.16448 6.48771 5.11982 6.493Z" fill="#343434"/>
<path d="M14.0211 6.48649C14.04 6.48574 14.0588 6.48913 14.0762 6.49644C14.0936 6.50374 14.1093 6.51477 14.122 6.52876C14.1347 6.54275 14.1441 6.55935 14.1497 6.5774C14.1553 6.59544 14.1569 6.61449 14.1543 6.63321C13.9945 7.80354 12.977 8.16474 12.9342 8.1794C12.902 8.18969 12.867 8.18696 12.8368 8.17179C12.8066 8.15662 12.7836 8.13021 12.7726 8.09824C12.7616 8.06627 12.7636 8.03127 12.7782 8.00076C12.7927 7.97024 12.8186 7.94663 12.8504 7.935C12.8876 7.92212 13.7606 7.6076 13.8989 6.59798C13.903 6.56803 13.9175 6.54048 13.9398 6.52011C13.9621 6.49974 13.9909 6.48784 14.0211 6.48649Z" fill="#343434"/>
</g>
<defs>
<filter id="filter0_d_1_230" x="0.96933" y="0.181076" width="19.4586" height="19.4587" filterUnits="userSpaceOnUse" color-interpolation-filters="sRGB">
<feFlood flood-opacity="0" result="BackgroundImageFix"/>
<feColorMatrix in="SourceAlpha" type="matrix" values="0 0 0 0 0 0 0 0 0 0 0 0 0 0 0 0 0 0 127 0" result="hardAlpha"/>
<feOffset dy="2.73715"/>
<feGaussianBlur stdDeviation="1.36858"/>
<feComposite in2="hardAlpha" operator="out"/>
<feColorMatrix type="matrix" values="0 0 0 0 0 0 0 0 0 0 0 0 0 0 0 0 0 0 0.25 0"/>
<feBlend mode="normal" in2="BackgroundImageFix" result="effect1_dropShadow_1_230"/>
<feBlend mode="normal" in="SourceGraphic" in2="effect1_dropShadow_1_230" result="shape"/>
</filter>
</defs>
</svg>
