<svg width="21" height="20" viewBox="0 0 21 20" fill="none" xmlns="http://www.w3.org/2000/svg">
<g filter="url(#filter0_d_0_185)">
<path d="M8.03167 5.77713C8.03167 4.89097 8.3393 4.0829 8.82137 3.42863C8.43568 3.25647 7.99491 3.16002 7.55187 3.16002C5.8393 3.16002 4.43433 4.565 4.43433 6.27759C4.43433 7.99018 5.8393 9.39517 7.55187 9.39517C8.26352 9.39517 8.89942 9.16331 9.43891 8.75926C8.57115 8.0476 8.03167 6.96862 8.03167 5.77713Z" fill="#36E0F7" stroke="black" stroke-width="0.1275"/>
<path d="M11.9189 2.65733C11.2073 2.65733 10.5713 2.88919 10.0319 3.29324C10.879 4.0049 11.4368 5.08389 11.4368 6.27537C11.4368 7.16153 11.1292 7.9696 10.6471 8.62387C11.0328 8.79603 11.4736 8.89248 11.9166 8.89248C13.6292 8.89248 15.0342 7.4875 15.0342 5.77491C15.0342 4.06232 13.6521 2.65733 11.9189 2.65733Z" fill="#56ACE0" stroke="black" stroke-width="0.1275"/>
<path d="M10.6672 6.27761C10.6672 7.00994 10.417 7.6826 9.9739 8.22209C9.24386 7.64357 8.78015 6.75972 8.78015 5.77718C8.78015 5.04486 9.03036 4.3722 9.47344 3.8327C10.2058 4.39056 10.6672 5.27668 10.6672 6.27761Z" fill="#56ACE0" stroke="black" stroke-width="0.1275"/>
<path d="M17.1343 0.175644H15.1715C14.9603 0.175644 14.7858 0.347805 14.7858 0.561337C14.7858 0.774869 14.9579 0.94703 15.1715 0.94703H16.1931L14.3841 2.77439C13.7114 2.21654 12.8643 1.88823 11.9208 1.88823C10.9382 1.88823 10.0544 2.25326 9.37944 2.85014C8.83995 2.5609 8.22472 2.3887 7.55206 2.3887C5.41481 2.3887 3.66321 4.12196 3.66321 6.27763C3.66321 8.29785 5.20362 9.95305 7.16644 10.1459V11.8585H6.31932C6.10813 11.8585 5.93363 12.0306 5.93363 12.2442C5.93363 12.4577 6.10579 12.6299 6.31932 12.6299H7.16644V13.6468C7.16644 13.858 7.3386 14.0325 7.55213 14.0325C7.76332 14.0325 7.93782 13.8604 7.93782 13.6468V12.6275H8.78495C8.99613 12.6275 9.17064 12.4554 9.17064 12.2419C9.17064 12.0283 8.99848 11.8562 8.78495 11.8562H7.93782V10.1436C8.76428 10.0655 9.49659 9.72116 10.0935 9.20003C10.633 9.48927 11.2482 9.66147 11.9209 9.66147C14.0581 9.66147 15.8074 7.90985 15.8074 5.77485C15.8074 4.8313 15.4792 3.98421 14.9213 3.31154L16.7487 1.48414V2.50344C16.7487 2.71463 16.9208 2.88913 17.1344 2.88913C17.3455 2.88913 17.52 2.71697 17.52 2.50344V0.561337C17.52 0.347805 17.3478 0.175644 17.1343 0.175644ZM11.9185 8.89473C11.4571 8.89473 11.0324 8.79832 10.649 8.62612C11.1495 7.97185 11.4387 7.16375 11.4387 6.27763C11.4387 5.08386 10.8992 4.00718 10.0337 3.29549C10.5526 2.89144 11.2068 2.65958 11.9208 2.65958C13.6334 2.65958 15.0383 4.06457 15.0383 5.77716C15.0383 7.48975 13.6517 8.89473 11.9185 8.89473ZM4.43228 6.27763C4.43228 4.56504 5.83725 3.16005 7.54982 3.16005C8.01126 3.16005 8.43598 3.25646 8.81936 3.42866C8.31889 4.08293 8.02965 4.89103 8.02965 5.77716C8.02965 6.97092 8.56914 8.0476 9.43463 8.75929C8.91581 9.16334 8.26154 9.3952 7.54759 9.3952C5.83722 9.3952 4.43228 7.99025 4.43228 6.27763ZM10.6696 6.27763C10.6696 7.00995 10.4194 7.68261 9.97635 8.22211C9.24404 7.64358 8.7826 6.75973 8.7826 5.77719C8.7826 5.04487 9.03282 4.37221 9.47589 3.83271C10.2059 4.39057 10.6696 5.27669 10.6696 6.27763Z" fill="#0B2741" stroke="black" stroke-width="0.1275"/>
<path d="M5.01289 6.42381C4.98496 6.42698 4.95669 6.42399 4.93004 6.41505C4.9034 6.40612 4.87904 6.39145 4.85868 6.37208C4.83832 6.35272 4.82245 6.32912 4.8122 6.30296C4.80195 6.2768 4.79756 6.24871 4.79934 6.22067C4.90892 4.46725 6.37913 3.82068 6.44112 3.79427C6.48777 3.7755 6.53992 3.77575 6.58639 3.79496C6.63285 3.81418 6.66994 3.85084 6.68969 3.89707C6.70944 3.9433 6.71028 3.99543 6.69204 4.04228C6.6738 4.08913 6.63792 4.12697 6.5921 4.14768C6.53825 4.17084 5.27736 4.73242 5.18212 6.24512C5.17927 6.28999 5.16078 6.33244 5.12986 6.36509C5.09894 6.39774 5.05755 6.41851 5.01289 6.42381Z" fill="white"/>
<path d="M13.9141 6.41729C13.933 6.41654 13.9518 6.41994 13.9692 6.42724C13.9867 6.43454 14.0023 6.44558 14.015 6.45956C14.0277 6.47355 14.0371 6.49015 14.0427 6.5082C14.0483 6.52624 14.0499 6.5453 14.0473 6.56401C13.8875 7.73434 12.8701 8.09554 12.8272 8.1102C12.795 8.1205 12.76 8.11776 12.7298 8.10259C12.6996 8.08742 12.6766 8.06102 12.6656 8.02904C12.6546 7.99707 12.6566 7.96207 12.6712 7.93156C12.6857 7.90104 12.7116 7.87744 12.7434 7.8658C12.7806 7.85292 13.6536 7.53841 13.7919 6.52878C13.796 6.49884 13.8105 6.47128 13.8328 6.45091C13.8551 6.43054 13.8839 6.41864 13.9141 6.41729Z" fill="white"/>
</g>
<defs>
<filter id="filter0_d_0_185" x="0.862335" y="0.111893" width="19.4586" height="19.4587" filterUnits="userSpaceOnUse" color-interpolation-filters="sRGB">
<feFlood flood-opacity="0" result="BackgroundImageFix"/>
<feColorMatrix in="SourceAlpha" type="matrix" values="0 0 0 0 0 0 0 0 0 0 0 0 0 0 0 0 0 0 127 0" result="hardAlpha"/>
<feOffset dy="2.73715"/>
<feGaussianBlur stdDeviation="1.36858"/>
<feComposite in2="hardAlpha" operator="out"/>
<feColorMatrix type="matrix" values="0 0 0 0 0 0 0 0 0 0 0 0 0 0 0 0 0 0 0.25 0"/>
<feBlend mode="normal" in2="BackgroundImageFix" result="effect1_dropShadow_0_185"/>
<feBlend mode="normal" in="SourceGraphic" in2="effect1_dropShadow_0_185" result="shape"/>
</filter>
</defs>
</svg>
