<svg width="13" height="12" viewBox="0 0 13 12" fill="none" xmlns="http://www.w3.org/2000/svg">
<path d="M12.4261 4.58043C12.3779 4.43169 12.2493 4.32325 12.0944 4.30073L8.44628 3.7706L6.81466 0.464857C6.74555 0.324501 6.60266 0.235703 6.44635 0.235703C6.28994 0.235703 6.14701 0.324501 6.07785 0.464857L4.44628 3.7706L0.798112 4.30073C0.643481 4.32321 0.514739 4.4316 0.466372 4.58043C0.418094 4.72903 0.458436 4.89235 0.57042 5.00163L3.21034 7.57474L2.58711 11.2082C2.5606 11.3623 2.62395 11.5181 2.75047 11.6101C2.87696 11.702 3.04484 11.7142 3.1832 11.6413L6.44639 9.92583L9.70927 11.6413C9.76943 11.6728 9.83513 11.6884 9.90052 11.6884C9.98568 11.6884 10.0706 11.662 10.1421 11.61C10.2686 11.5181 10.3319 11.3622 10.3056 11.2081L10.0716 9.84416L9.87928 8.72273L9.68236 7.57474L12.3222 5.00163C12.4342 4.89235 12.4745 4.72903 12.4261 4.58043Z" fill="#FFD960"/>
<g opacity="0.15">
<path d="M3.52346 11.3393C3.39698 11.2473 3.33354 11.0915 3.36009 10.9374L3.98332 7.30396L1.3434 4.73085C1.23142 4.62157 1.19117 4.4583 1.23935 4.30965C1.2484 4.2819 1.26099 4.25614 1.27531 4.23149L0.7986 4.30078C0.643968 4.32326 0.515227 4.43165 0.46686 4.58048C0.418582 4.72908 0.458925 4.8924 0.570909 5.00168L3.21082 7.57479L2.5876 11.2082C2.56109 11.3623 2.62444 11.5181 2.75096 11.6101C2.87744 11.7021 3.04533 11.7142 3.18369 11.6414L3.64484 11.399C3.60206 11.3858 3.56083 11.3665 3.52346 11.3393Z" fill="#231F20"/>
</g>
</svg>
