<svg width="22" height="37" viewBox="0 0 22 37" fill="none" xmlns="http://www.w3.org/2000/svg">
<path d="M15.0406 26.8476H6.47506C5.58585 26.8476 4.8623 27.2962 4.8623 27.8476C4.8623 28.399 5.58579 28.8476 6.47506 28.8476H15.0407C15.9299 28.8476 16.6533 28.399 16.6533 27.8476C16.6533 27.2962 15.93 26.8476 15.0406 26.8476Z" fill="#ACACAC"/>
<path d="M16.6533 31.587C16.6533 31.0357 15.9299 30.587 15.0407 30.587H6.47506C5.58585 30.587 4.8623 31.0357 4.8623 31.587C4.8623 32.1384 5.58579 32.587 6.47506 32.587H15.0407C15.93 32.587 16.6533 32.1385 16.6533 31.587Z" fill="#ACACAC"/>
<path d="M7.68496 34.3836C6.79575 34.3836 6.07227 34.8322 6.07227 35.3836C6.07227 35.935 6.79575 36.3836 7.68496 36.3836H13.831C14.7202 36.3836 15.4436 35.935 15.4436 35.3836C15.4436 34.8322 14.7202 34.3836 13.831 34.3836H7.68496Z" fill="#ACACAC"/>
<path d="M8.97872 17.6042L8.97867 17.6053C8.97855 17.6072 8.97839 17.6098 8.97816 17.6129C8.97793 17.616 8.97763 17.6196 8.97724 17.6236L8.84777 18.9615L8.14561 17.8153C7.61432 16.948 6.39156 14.5727 7.34934 12.1944C8.23889 9.9856 10.6995 8.43344 14.4176 7.46683M8.97872 17.6042L14.4176 7.46683M8.97872 17.6042C9.14293 15.2755 10.3266 14.1582 11.0358 13.6914C10.4455 14.6231 9.31396 16.9326 8.5203 21.7799C8.52029 21.78 8.52028 21.7801 8.52026 21.7802L8.97872 17.6042ZM14.4176 7.46683C14.4812 7.45028 14.5488 7.44067 14.6185 7.44067C15.0371 7.44067 15.316 7.76338 15.355 8.12569L15.355 8.12575L15.3557 8.1315C15.4413 8.92689 15.617 10.5579 15.5302 12.2781C15.4443 13.9799 15.098 15.8782 14.0506 17.1198C13.3773 17.9182 12.4736 18.3547 11.3963 18.4217L11.3962 18.4217C11.1904 18.4345 11.0742 18.5802 11.0742 18.7294V21.8163C11.0742 22.2777 10.6996 22.6522 10.2383 22.6522H9.26601C9.05559 22.6522 8.83707 22.5723 8.68317 22.3917L14.4176 7.46683ZM19.2043 16.9192L19.2042 16.9192L17.4665 22.9032L17.0207 22.8413C17.0207 22.8414 17.0207 22.8416 17.0207 22.8417C17.0098 22.92 17.0011 23.0076 16.9929 23.0896L16.9926 23.0931C16.9926 23.0931 16.9926 23.0932 16.9926 23.0932C16.9925 23.0933 16.9925 23.0933 16.9925 23.0933C16.9757 23.2615 16.9599 23.416 16.9326 23.5572C16.9048 23.7013 16.8713 23.7958 16.8375 23.852C16.6955 24.0887 16.4336 24.2369 16.1577 24.2368H16.1575H5.35786C4.9247 24.2368 4.56836 23.8841 4.56353 23.4497L4.5633 23.4289L4.56115 23.4082C4.23948 20.3138 3.24501 18.5634 2.31208 16.9212L2.3104 16.9183L2.31039 16.9183C1.33247 15.1973 0.45 13.6416 0.45 10.7576C0.45 5.07433 5.07433 0.45 10.7576 0.45C16.4408 0.45 21.0652 5.07433 21.0653 10.7576C21.0653 13.6422 20.1826 15.198 19.2043 16.9192ZM8.08 17.5565C8.07998 17.557 8.08 17.5565 8.08006 17.5554L8.08 17.5565Z" stroke="#ACACAC" stroke-width="0.9"/>
</svg>
