<svg width="18" height="24" viewBox="0 0 18 24" fill="none" xmlns="http://www.w3.org/2000/svg">
<path d="M9 4C5.96354 4 3.5 6.34476 3.5 9.23264C3.5 12.5556 7.16667 17.8214 8.51302 19.6402C8.56891 19.717 8.64215 19.7795 8.72679 19.8226C8.81142 19.8656 8.90504 19.8881 9 19.8881C9.09496 19.8881 9.18858 19.8656 9.27321 19.8226C9.35785 19.7795 9.43109 19.717 9.48698 19.6402C10.8333 17.8222 14.5 12.5582 14.5 9.23264C14.5 6.34476 12.0365 4 9 4Z" stroke="white" stroke-width="1.5" stroke-linecap="round" stroke-linejoin="round"/>
<path d="M8.9999 11.3334C10.0124 11.3334 10.8332 10.5126 10.8332 9.50008C10.8332 8.48756 10.0124 7.66675 8.9999 7.66675C7.98738 7.66675 7.16656 8.48756 7.16656 9.50008C7.16656 10.5126 7.98738 11.3334 8.9999 11.3334Z" stroke="white" stroke-width="1.5" stroke-linecap="round" stroke-linejoin="round"/>
</svg>
