<svg width="14" height="18" viewBox="0 0 14 18" fill="none" xmlns="http://www.w3.org/2000/svg">
<path d="M7 1C3.96354 1 1.5 3.34476 1.5 6.23264C1.5 9.55555 5.16667 14.8214 6.51302 16.6402C6.56891 16.717 6.64215 16.7795 6.72679 16.8226C6.81142 16.8656 6.90504 16.8881 7 16.8881C7.09496 16.8881 7.18858 16.8656 7.27321 16.8226C7.35785 16.7795 7.43109 16.717 7.48698 16.6402C8.83333 14.8222 12.5 9.55823 12.5 6.23264C12.5 3.34476 10.0365 1 7 1Z" stroke="black" stroke-width="1.5" stroke-linecap="round" stroke-linejoin="round"/>
<path d="M6.99984 8.33332C8.01236 8.33332 8.83317 7.51251 8.83317 6.49999C8.83317 5.48747 8.01236 4.66666 6.99984 4.66666C5.98732 4.66666 5.1665 5.48747 5.1665 6.49999C5.1665 7.51251 5.98732 8.33332 6.99984 8.33332Z" stroke="black" stroke-width="1.5" stroke-linecap="round" stroke-linejoin="round"/>
</svg>
