<svg width="25" height="25" viewBox="0 0 25 25" fill="none" xmlns="http://www.w3.org/2000/svg">
<path d="M14.0892 4.21949L14.0896 4.21974L19.7919 8.20935C19.7919 8.20937 19.7919 8.2094 19.792 8.20943C20.2314 8.51708 20.6563 9.0289 20.9719 9.63343C21.2875 10.238 21.4649 10.8798 21.4649 11.419V18.1312C21.4649 20.2968 19.7066 22.055 17.5411 22.055H6.8689C4.70522 22.055 2.9451 20.2887 2.9451 18.1213V11.2903C2.9451 10.7909 3.10538 10.1817 3.39305 9.59747C3.68055 9.01357 4.0676 8.51079 4.46698 8.19927L4.46712 8.19916L9.42522 4.32966C9.42552 4.32943 9.42583 4.32919 9.42613 4.32896C10.6959 3.34582 12.7686 3.2942 14.0892 4.21949ZM12.205 20.1375C12.9699 20.1375 13.5975 19.5099 13.5975 18.745V15.775C13.5975 15.0102 12.9699 14.3825 12.205 14.3825C11.4401 14.3825 10.8125 15.0102 10.8125 15.775V18.745C10.8125 19.5099 11.4401 20.1375 12.205 20.1375Z" stroke="#BBBBBB" stroke-width="1.3"/>
</svg>
