<svg width="14" height="15" viewBox="0 0 14 15" fill="none" xmlns="http://www.w3.org/2000/svg">
<path d="M3.46202 7.30966C5.08357 7.30966 6.3981 5.99513 6.3981 4.37358C6.3981 2.75203 5.08357 1.4375 3.46202 1.4375C1.84047 1.4375 0.52594 2.75203 0.52594 4.37358C0.52594 5.99513 1.84047 7.30966 3.46202 7.30966Z" stroke="#020202" stroke-miterlimit="10"/>
<path d="M10.5097 14.3636C12.1313 14.3636 13.4458 13.0491 13.4458 11.4276C13.4458 9.80601 12.1313 8.49149 10.5097 8.49149C8.8882 8.49149 7.57367 9.80601 7.57367 11.4276C7.57367 13.0491 8.8882 14.3636 10.5097 14.3636Z" stroke="#020202" stroke-miterlimit="10"/>
<path d="M10.5099 2.61316V8.48532" stroke="#020202" stroke-miterlimit="10"/>
<path d="M3.46191 7.31583V14.3636" stroke="#020202" stroke-miterlimit="10"/>
<path d="M7.49988 4.89062L10.5098 1.88068L13.5198 4.89062" stroke="#020202" stroke-miterlimit="10"/>
<path d="M0.519775 11.4276H6.39809" stroke="#020202" stroke-miterlimit="10"/>
</svg>
