<svg width="29" height="29" viewBox="0 0 29 29" fill="none" xmlns="http://www.w3.org/2000/svg">
<g clip-path="url(#clip0_1_432)">
<rect opacity="0.5" x="0.433838" y="1.52588e-05" width="28.248" height="28.248" rx="5" fill="white"/>
<path d="M7.6708 13.7304H21.1797C21.3588 13.7304 21.5306 13.8015 21.6573 13.9282C21.784 14.0549 21.8551 14.2267 21.8551 14.4058C21.8551 14.5849 21.784 14.7567 21.6573 14.8834C21.5306 15.0101 21.3588 15.0812 21.1797 15.0812H7.6708C7.49167 15.0812 7.31986 15.0101 7.19319 14.8834C7.06652 14.7567 6.99536 14.5849 6.99536 14.4058C6.99536 14.2267 7.06652 14.0549 7.19319 13.9282C7.31986 13.8015 7.49167 13.7304 7.6708 13.7304Z" fill="black" stroke="black" stroke-width="1.177"/>
<path d="M7.95009 14.4058L13.5522 20.0066C13.679 20.1334 13.7503 20.3054 13.7503 20.4848C13.7503 20.6641 13.679 20.8362 13.5522 20.963C13.4254 21.0898 13.2534 21.1611 13.074 21.1611C12.8946 21.1611 12.7226 21.0898 12.5958 20.963L6.5168 14.884C6.45389 14.8213 6.40399 14.7467 6.36994 14.6647C6.33589 14.5826 6.31836 14.4946 6.31836 14.4058C6.31836 14.3169 6.33589 14.229 6.36994 14.1469C6.40399 14.0649 6.45389 13.9903 6.5168 13.9276L12.5958 7.84858C12.7226 7.72175 12.8946 7.6505 13.074 7.6505C13.2534 7.6505 13.4254 7.72175 13.5522 7.84858C13.679 7.97541 13.7503 8.14743 13.7503 8.32679C13.7503 8.50616 13.679 8.67818 13.5522 8.80501L7.95009 14.4058Z" fill="black" stroke="black" stroke-width="1.177"/>
</g>
<defs>
<clipPath id="clip0_1_432">
<rect width="28.248" height="28.248" fill="white" transform="translate(0.434082)"/>
</clipPath>
</defs>
</svg>
