<svg width="13" height="12" viewBox="0 0 13 12" fill="none" xmlns="http://www.w3.org/2000/svg">
<path d="M12.4722 4.61615C12.4239 4.46741 12.2953 4.35897 12.1405 4.33645L8.49236 3.80632L6.86074 0.500578C6.79163 0.360221 6.64874 0.271423 6.49243 0.271423C6.33602 0.271423 6.19309 0.360221 6.12394 0.500578L4.49236 3.80632L0.844194 4.33645C0.689562 4.35893 0.56082 4.46732 0.512453 4.61615C0.464175 4.76475 0.504518 4.92807 0.616502 5.03735L3.25642 7.61046L2.63319 11.2439C2.60668 11.398 2.67003 11.5538 2.79656 11.6458C2.92304 11.7377 3.09092 11.7499 3.22929 11.677L6.49247 9.96155L9.75535 11.677C9.81551 11.7086 9.88121 11.7242 9.9466 11.7242C10.0318 11.7242 10.1167 11.6977 10.1882 11.6457C10.3146 11.5538 10.378 11.398 10.3517 11.2439L10.1177 9.87988L9.92536 8.75845L9.72844 7.61046L12.3683 5.03735C12.4803 4.92807 12.5206 4.76475 12.4722 4.61615Z" fill="#BBBBBB"/>
<g opacity="0.15">
<path d="M3.56954 11.375C3.44306 11.2831 3.37962 11.1272 3.40617 10.9731L4.0294 7.33968L1.38948 4.76657C1.2775 4.65729 1.23725 4.49402 1.28544 4.34537C1.29448 4.31762 1.30707 4.29186 1.32139 4.26721L0.844682 4.3365C0.69005 4.35898 0.561308 4.46737 0.512942 4.6162C0.464664 4.7648 0.505006 4.92812 0.61699 5.0374L3.25691 7.61051L2.63368 11.244C2.60717 11.3981 2.67052 11.5538 2.79704 11.6458C2.92352 11.7378 3.09141 11.7499 3.22977 11.6771L3.69092 11.4347C3.64814 11.4215 3.60691 11.4022 3.56954 11.375Z" fill="#231F20"/>
</g>
</svg>
