<svg width="13" height="12" viewBox="0 0 13 12" fill="none" xmlns="http://www.w3.org/2000/svg">
<path d="M12.6261 4.58043C12.5778 4.43169 12.4492 4.32325 12.2944 4.30073L8.64623 3.7706L7.01461 0.464857C6.9455 0.324501 6.80261 0.235703 6.6463 0.235703C6.48989 0.235703 6.34696 0.324501 6.27781 0.464857L4.64623 3.7706L0.998064 4.30073C0.843432 4.32321 0.71469 4.4316 0.666323 4.58043C0.618045 4.72903 0.658387 4.89235 0.770372 5.00163L3.41029 7.57474L2.78706 11.2082C2.76055 11.3623 2.8239 11.5181 2.95043 11.6101C3.07691 11.702 3.24479 11.7142 3.38316 11.6413L6.64634 9.92583L9.90922 11.6413C9.96938 11.6728 10.0351 11.6884 10.1005 11.6884C10.1856 11.6884 10.2705 11.662 10.3421 11.61C10.4685 11.5181 10.5319 11.3622 10.5055 11.2081L10.2716 9.84416L10.0792 8.72273L9.88231 7.57474L12.5221 5.00163C12.6342 4.89235 12.6745 4.72903 12.6261 4.58043Z" fill="#BBBBBB"/>
<g opacity="0.15">
<path d="M3.72341 11.3393C3.59693 11.2473 3.53349 11.0915 3.56004 10.9374L4.18327 7.30396L1.54335 4.73085C1.43137 4.62157 1.39112 4.4583 1.43931 4.30965C1.44835 4.2819 1.46094 4.25614 1.47526 4.23149L0.998552 4.30078C0.84392 4.32326 0.715178 4.43165 0.666811 4.58048C0.618533 4.72908 0.658876 4.8924 0.77086 5.00168L3.41077 7.57479L2.78755 11.2082C2.76104 11.3623 2.82439 11.5181 2.95091 11.6101C3.07739 11.7021 3.24528 11.7142 3.38364 11.6414L3.84479 11.399C3.80201 11.3858 3.76078 11.3665 3.72341 11.3393Z" fill="#231F20"/>
</g>
</svg>
