<svg width="15" height="13" viewBox="0 0 15 13" fill="none" xmlns="http://www.w3.org/2000/svg">
<path d="M2.14906 5.66556H13.6264C13.7786 5.66556 13.9246 5.72602 14.0322 5.83364C14.1398 5.94126 14.2003 6.08723 14.2003 6.23943C14.2003 6.39163 14.1398 6.53759 14.0322 6.64521C13.9246 6.75283 13.7786 6.81329 13.6264 6.81329H2.14906C1.99686 6.81329 1.8509 6.75283 1.74328 6.64521C1.63566 6.53759 1.5752 6.39163 1.5752 6.23943C1.5752 6.08723 1.63566 5.94126 1.74328 5.83364C1.8509 5.72602 1.99686 5.66556 2.14906 5.66556Z" fill="white" stroke="white" stroke-width="0.66"/>
<path d="M2.38634 6.23941L7.14601 10.9979C7.25377 11.1057 7.3143 11.2518 7.3143 11.4042C7.3143 11.5566 7.25377 11.7028 7.14601 11.8105C7.03825 11.9183 6.8921 11.9788 6.73971 11.9788C6.58732 11.9788 6.44117 11.9183 6.33341 11.8105L1.1686 6.64571C1.11515 6.5924 1.07275 6.52907 1.04382 6.45935C1.01489 6.38963 1 6.31489 1 6.23941C1 6.16393 1.01489 6.08918 1.04382 6.01946C1.07275 5.94975 1.11515 5.88642 1.1686 5.83311L6.33341 0.668294C6.44117 0.560537 6.58732 0.5 6.73971 0.5C6.8921 0.5 7.03825 0.560537 7.14601 0.668294C7.25377 0.776052 7.3143 0.922202 7.3143 1.07459C7.3143 1.22699 7.25377 1.37314 7.14601 1.48089L2.38634 6.23941Z" fill="white" stroke="white" stroke-width="0.66"/>
</svg>
