<svg width="13" height="19" viewBox="0 0 13 19" fill="none" xmlns="http://www.w3.org/2000/svg">
<path d="M5.94815 14.4767C6.06415 14.6559 6.26801 14.7755 6.5 14.7755C6.73199 14.7755 6.93585 14.6559 7.05536 14.4767L10.9288 8.49426C11.449 7.68934 11.7513 6.80358 11.7513 5.77721C11.7478 2.81061 9.4174 0.529411 6.5 0.529411C3.5826 0.529411 1.2522 2.81061 1.2522 5.77721C1.2522 6.80358 1.55448 7.68934 2.07469 8.49426L5.94815 14.4767ZM6.5 2.77897C8.15553 2.77897 9.49824 4.12168 9.49824 5.77721C9.49824 7.43275 8.15553 8.77546 6.5 8.77546C4.84446 8.77546 3.50176 7.43275 3.50176 5.77721C3.50176 4.12168 4.84446 2.77897 6.5 2.77897ZM10.3453 11.9002L6.5 17.025L2.65466 11.9002C1.34007 12.5892 0.5 13.619 0.5 14.7755C0.5 16.8458 3.18541 18.5259 6.5 18.5259C9.81459 18.5259 12.5 16.8458 12.5 14.7755C12.5 13.619 11.6599 12.5892 10.3453 11.9002Z" fill="black"/>
</svg>
