<svg width="13" height="19" viewBox="0 0 13 19" fill="none" xmlns="http://www.w3.org/2000/svg">
<path d="M5.94815 14.4766C6.06415 14.6558 6.26801 14.7753 6.5 14.7753C6.73199 14.7753 6.93585 14.6558 7.05536 14.4766L10.9288 8.49415C11.449 7.68923 11.7513 6.80346 11.7513 5.7771C11.7478 2.81049 9.4174 0.529297 6.5 0.529297C3.5826 0.529297 1.2522 2.81049 1.2522 5.7771C1.2522 6.80346 1.55448 7.68923 2.07469 8.49415L5.94815 14.4766ZM6.5 2.77886C8.15553 2.77886 9.49824 4.12156 9.49824 5.7771C9.49824 7.43264 8.15553 8.77534 6.5 8.77534C4.84446 8.77534 3.50176 7.43264 3.50176 5.7771C3.50176 4.12156 4.84446 2.77886 6.5 2.77886ZM10.3453 11.9001L6.5 17.0249L2.65466 11.9001C1.34007 12.589 0.5 13.6189 0.5 14.7753C0.5 16.8456 3.18541 18.5258 6.5 18.5258C9.81459 18.5258 12.5 16.8456 12.5 14.7753C12.5 13.6189 11.6599 12.589 10.3453 11.9001Z" fill="white"/>
</svg>
