<svg width="14" height="14" viewBox="0 0 14 14" fill="none" xmlns="http://www.w3.org/2000/svg">
<path d="M2.816 6.059C3.94348 8.26392 5.73708 10.0575 7.942 11.185L9.653 9.474C9.75466 9.37208 9.88276 9.30058 10.0229 9.26754C10.163 9.2345 10.3095 9.24124 10.446 9.287C11.3422 9.58136 12.2797 9.73091 13.223 9.73C13.4292 9.73053 13.6268 9.81267 13.7725 9.95845C13.9183 10.1042 14.0005 10.3018 14.001 10.508V13.222C14.0005 13.4282 13.9183 13.6258 13.7725 13.7715C13.6268 13.9173 13.4292 13.9995 13.223 14C11.4865 14.0003 9.76704 13.6585 8.1627 12.9941C6.55836 12.3297 5.1006 11.3558 3.87269 10.128C2.64479 8.9002 1.67078 7.44252 1.00629 5.83823C0.341809 4.23393 -0.000131323 2.51446 3.78336e-08 0.778C0.00052802 0.571824 0.0826651 0.374243 0.228454 0.228454C0.374243 0.0826651 0.571824 0.000527982 0.778 0H3.5C3.70618 0.000527982 3.90376 0.0826651 4.04955 0.228454C4.19533 0.374243 4.27747 0.571824 4.278 0.778C4.27648 1.72138 4.42604 2.65892 4.721 3.555C4.76496 3.69221 4.7701 3.83891 4.73586 3.97887C4.70163 4.11882 4.62934 4.24658 4.527 4.348L2.816 6.059Z" fill="white"/>
</svg>
