<svg width="14" height="16" viewBox="0 0 14 16" fill="none" xmlns="http://www.w3.org/2000/svg">
<path d="M6.75 0C6.87787 0 7.00051 0.0507971 7.09093 0.141216C7.18135 0.231636 7.23214 0.354271 7.23214 0.482143V1.92857H8.19643C8.58005 1.92857 8.94795 2.08096 9.21921 2.35222C9.49047 2.62348 9.64286 2.99138 9.64286 3.375V6.75H12.0536C12.4372 6.75 12.8051 6.90239 13.0764 7.17365C13.3476 7.44491 13.5 7.81281 13.5 8.19643V13.9821C13.5 14.3658 13.3476 14.7337 13.0764 15.0049C12.8051 15.2762 12.4372 15.4286 12.0536 15.4286H1.44643C1.06281 15.4286 0.694907 15.2762 0.423649 15.0049C0.152391 14.7337 0 14.3658 0 13.9821V8.019C1.42396e-05 7.76929 0.0646774 7.52383 0.187696 7.30652C0.310714 7.08921 0.487897 6.90745 0.702 6.77893L3.59486 5.04321C3.67798 4.99295 3.76582 4.95096 3.85714 4.91786V3.375C3.85714 2.99138 4.00953 2.62348 4.28079 2.35222C4.55205 2.08096 4.91995 1.92857 5.30357 1.92857H6.26786V0.482143C6.26786 0.354271 6.31865 0.231636 6.40907 0.141216C6.49949 0.0507971 6.62213 0 6.75 0ZM4.82143 4.91882C5.36432 5.11361 5.78571 5.62468 5.78571 6.28329V14.4643H7.71429V8.19643C7.71413 7.89719 7.80679 7.60526 7.97949 7.36088C8.1522 7.11651 8.39644 6.93171 8.67857 6.83196V3.37596C8.67857 3.24809 8.62777 3.12546 8.53736 3.03504C8.44694 2.94462 8.3243 2.89382 8.19643 2.89382H5.30357C5.1757 2.89382 5.05306 2.94462 4.96264 3.03504C4.87223 3.12546 4.82143 3.24809 4.82143 3.37596V4.91882ZM9.16071 7.71429C9.03284 7.71429 8.91021 7.76508 8.81979 7.8555C8.72937 7.94592 8.67857 8.06856 8.67857 8.19643V14.4643H12.0536C12.1814 14.4643 12.3041 14.4135 12.3945 14.3231C12.4849 14.2327 12.5357 14.11 12.5357 13.9821V8.19643C12.5357 8.06856 12.4849 7.94592 12.3945 7.8555C12.3041 7.76508 12.1814 7.71429 12.0536 7.71429H9.16071ZM4.09146 5.86961L1.19861 7.60532C1.12699 7.64823 1.06775 7.70901 1.02667 7.78169C0.985599 7.85437 0.964101 7.93648 0.964286 8.01996V13.9821C0.964286 14.11 1.01508 14.2327 1.1055 14.3231C1.19592 14.4135 1.31856 14.4643 1.44643 14.4643H4.82143V6.28329C4.82145 6.19798 4.79883 6.1142 4.75589 6.04049C4.71295 5.96677 4.65122 5.90578 4.577 5.86372C4.50279 5.82166 4.41874 5.80004 4.33344 5.80108C4.24814 5.80211 4.16464 5.82576 4.09146 5.86961Z" fill="white"/>
</svg>
