<svg width="14" height="14" viewBox="0 0 14 14" fill="none" xmlns="http://www.w3.org/2000/svg">
<path d="M2.8125 0.5C2.06658 0.5 1.35121 0.796316 0.823762 1.32376C0.296316 1.85121 0 2.56658 0 3.3125V11.1875C0 11.9334 0.296316 12.6488 0.823762 13.1762C1.35121 13.7037 2.06658 14 2.8125 14H10.6875C11.4334 14 12.1488 13.7037 12.6762 13.1762C13.2037 12.6488 13.5 11.9334 13.5 11.1875V3.3125C13.5 2.56658 13.2037 1.85121 12.6762 1.32376C12.1488 0.796316 11.4334 0.5 10.6875 0.5H2.8125ZM9.96075 5.96075L6.02325 9.89825C5.971 9.95063 5.90893 9.99219 5.84059 10.0206C5.77225 10.0489 5.69899 10.0635 5.625 10.0635C5.55101 10.0635 5.47775 10.0489 5.40941 10.0206C5.34107 9.99219 5.279 9.95063 5.22675 9.89825L3.53925 8.21075C3.48695 8.15845 3.44547 8.09636 3.41716 8.02803C3.38886 7.9597 3.37429 7.88646 3.37429 7.8125C3.37429 7.73854 3.38886 7.6653 3.41716 7.59697C3.44547 7.52864 3.48695 7.46655 3.53925 7.41425C3.64487 7.30863 3.78813 7.24929 3.9375 7.24929C4.01146 7.24929 4.0847 7.26386 4.15303 7.29216C4.22136 7.32047 4.28345 7.36195 4.33575 7.41425L5.625 8.70463L9.16425 5.16425C9.26987 5.05863 9.41313 4.99929 9.5625 4.99929C9.71187 4.99929 9.85513 5.05863 9.96075 5.16425C10.0664 5.26987 10.1257 5.41313 10.1257 5.5625C10.1257 5.71187 10.0664 5.85513 9.96075 5.96075Z" fill="#72B54D"/>
</svg>
