<svg width="9" height="10" viewBox="0 0 9 10" fill="none" xmlns="http://www.w3.org/2000/svg">
<path d="M4.60526 -0.00231164C4.18742 -0.00239839 3.77366 0.0798353 3.38761 0.239692C3.00156 0.399548 2.65078 0.633895 2.35533 0.929346C2.05987 1.2248 1.82551 1.57556 1.66565 1.9616C1.50579 2.34764 1.42356 2.7614 1.42365 3.17923C1.42365 5.50033 4.60526 7.94229 4.60526 7.94229C4.60526 7.94229 5.48288 7.26543 6.31691 6.28878C6.34975 6.25661 6.37225 6.21538 6.38153 6.17035C6.39081 6.12533 6.38645 6.07856 6.36901 6.03602C6.35157 5.99349 6.32184 5.95712 6.28362 5.93157C6.24541 5.90601 6.20044 5.89244 6.15446 5.89258C6.12026 5.89295 6.08657 5.90104 6.05593 5.91624C6.02528 5.93145 5.99847 5.95338 5.97749 5.9804L5.97683 5.97974L6.74549 4.85122L6.78181 4.87367C6.75616 4.90983 6.74191 4.95283 6.74086 4.99715C6.74078 5.02756 6.74669 5.05768 6.75827 5.0858C6.76984 5.11392 6.78685 5.13947 6.80833 5.16101C6.8298 5.18254 6.8553 5.19962 6.88339 5.21128C6.91147 5.22293 6.94158 5.22893 6.97199 5.22893C7.02015 5.22854 7.06696 5.21303 7.10583 5.1846C7.14469 5.15616 7.17364 5.11623 7.18859 5.07045C7.53858 4.46624 7.78621 3.81976 7.78621 3.17989C7.78647 2.76203 7.70438 2.34822 7.54463 1.96211C7.38488 1.576 7.15061 1.22515 6.85519 0.929619C6.55978 0.63409 6.20902 0.399673 5.82297 0.239768C5.43691 0.0798618 5.02312 -0.00239848 4.60526 -0.00231164Z" fill="black"/>
<path d="M6.38293 5.55316C6.38293 5.61445 6.40729 5.67324 6.45063 5.71658C6.49397 5.75993 6.55276 5.78428 6.61406 5.78428C6.67536 5.78428 6.73415 5.75993 6.77749 5.71658C6.82084 5.67324 6.84519 5.61445 6.84519 5.55316C6.84519 5.49186 6.82084 5.43307 6.77749 5.38973C6.73415 5.34639 6.67536 5.32204 6.61406 5.32204C6.55276 5.32204 6.49397 5.34639 6.45063 5.38973C6.40729 5.43307 6.38293 5.49186 6.38293 5.55316Z" fill="black"/>
<path d="M4.60498 0.459923C3.88398 0.460622 3.1927 0.747343 2.68288 1.25716C2.17305 1.76697 1.88632 2.45823 1.88562 3.17922C1.88562 4.86111 3.85812 6.70612 4.60498 7.34401C5.35185 6.70612 7.32435 4.86111 7.32435 3.17922C7.32347 2.45828 7.03669 1.76713 6.5269 1.25735C6.01711 0.747574 5.32593 0.460797 4.60498 0.459923ZM4.60498 4.92319C4.37188 4.92319 4.14106 4.87727 3.9257 4.78807C3.71034 4.69887 3.51466 4.56812 3.34983 4.4033C3.18501 4.23848 3.05426 4.0428 2.96505 3.82745C2.87585 3.61209 2.82994 3.38128 2.82994 3.14818C2.82994 2.91509 2.87585 2.68427 2.96505 2.46892C3.05426 2.25356 3.18501 2.05789 3.34983 1.89307C3.51466 1.72824 3.71034 1.59749 3.9257 1.50829C4.14106 1.41909 4.37188 1.37318 4.60498 1.37318C5.07575 1.37318 5.52725 1.56019 5.86013 1.89307C6.19302 2.22594 6.38003 2.67742 6.38003 3.14818C6.38003 3.61894 6.19302 4.07042 5.86013 4.4033C5.52725 4.73618 5.07575 4.92319 4.60498 4.92319Z" fill="#E91C1C"/>
<path d="M3.29352 3.14818C3.29352 3.49617 3.43176 3.82991 3.67783 4.07598C3.92391 4.32204 4.25765 4.46028 4.60565 4.46028C4.95365 4.46028 5.2874 4.32204 5.53347 4.07598C5.77955 3.82991 5.91779 3.49617 5.91779 3.14818C5.91779 2.80019 5.77955 2.46645 5.53347 2.22038C5.2874 1.97431 4.95365 1.83607 4.60565 1.83607C4.25765 1.83607 3.92391 1.97431 3.67783 2.22038C3.43176 2.46645 3.29352 2.80019 3.29352 3.14818Z" fill="white"/>
<path d="M0.908203 8.81329C0.908203 8.87459 0.932554 8.93337 0.975898 8.97672C1.01924 9.02006 1.07803 9.04441 1.13933 9.04441C1.20063 9.04441 1.25942 9.02006 1.30276 8.97672C1.3461 8.93337 1.37046 8.87459 1.37046 8.81329C1.37046 8.75199 1.3461 8.69321 1.30276 8.64986C1.25942 8.60652 1.20063 8.58217 1.13933 8.58217C1.07803 8.58217 1.01924 8.60652 0.975898 8.64986C0.932554 8.69321 0.908203 8.75199 0.908203 8.81329Z" fill="black"/>
<path d="M1.93102 8.58215C1.86977 8.58233 1.81108 8.60673 1.76778 8.65004C1.72447 8.69335 1.70006 8.75203 1.69989 8.81327C1.69989 8.94006 1.80423 9.04505 1.93102 9.04505H8.07237C8.19915 9.04505 8.30349 8.94138 8.30349 8.81393C8.30332 8.75269 8.27891 8.69335 8.2356 8.65004C8.1923 8.60673 8.13361 8.58233 8.07237 8.58215H1.93102Z" fill="black"/>
<path d="M2.23821 2.8596C2.21407 2.85959 2.19023 2.85429 2.16837 2.84407C2.1465 2.83385 2.12715 2.81896 2.11166 2.80045C2.09617 2.78195 2.08493 2.76027 2.07873 2.73694C2.07252 2.71362 2.07151 2.68922 2.07576 2.66546C2.3399 1.17969 3.65732 0.770934 3.71279 0.754425C3.75442 0.742943 3.79889 0.748229 3.83667 0.769151C3.87445 0.790072 3.90253 0.824964 3.91488 0.866343C3.92723 0.907722 3.92288 0.952295 3.90276 0.990502C3.88263 1.02871 3.84833 1.05751 3.80722 1.07073C3.75902 1.08526 2.62848 1.44184 2.4 2.72357C2.3932 2.76159 2.37329 2.79602 2.34373 2.82087C2.31417 2.84573 2.27683 2.85943 2.23821 2.8596Z" fill="white"/>
</svg>
