<svg width="16" height="15" viewBox="0 0 16 15" fill="none" xmlns="http://www.w3.org/2000/svg">
<path d="M8.63273 9.50545L6.78545 7.68L6.80727 7.65818C8.03938 6.2888 8.95992 4.66855 9.50546 2.90909H11.6364V1.45455H6.54545V0H5.09091V1.45455H0V2.90909H8.12364C7.63636 4.30545 6.86545 5.63636 5.81818 6.8C5.14182 6.05091 4.58182 5.22909 4.13818 4.36364H2.68364C3.21455 5.54909 3.94182 6.66909 4.85091 7.68L1.14909 11.3309L2.18182 12.3636L5.81818 8.72727L8.08 10.9891L8.63273 9.50545ZM12.7273 5.81818H11.2727L8 14.5455H9.45455L10.2691 12.3636H13.7236L14.5455 14.5455H16L12.7273 5.81818ZM10.8218 10.9091L12 7.76L13.1782 10.9091H10.8218Z" fill="black"/>
</svg>
