<svg width="66" height="67" viewBox="0 0 66 67" fill="none" xmlns="http://www.w3.org/2000/svg">
<g filter="url(#filter0_d_1_1797)">
<rect x="4.20001" y="1.75" width="57.6" height="57.6" rx="28.8" fill="#159C95" shape-rendering="crispEdges"/>
<path fill-rule="evenodd" clip-rule="evenodd" d="M22.448 26.2545C22.448 25.103 23.1835 24.1241 24.2101 23.7609V20.1047H18.9583C18.4756 20.1047 18.0833 20.4969 18.0833 20.9797V41.9797C18.0833 42.4624 18.4756 42.8547 18.9583 42.8547H30.3036C30.7868 42.8547 31.1786 43.2464 31.1786 43.7297C31.1786 44.2129 30.7868 44.6047 30.3036 44.6047H18.9583C17.5091 44.6047 16.3333 43.4289 16.3333 41.9797V20.9797C16.3333 19.5304 17.5091 18.3547 18.9583 18.3547H24.2101V16.625C24.2101 16.1417 24.6018 15.75 25.0851 15.75C25.5683 15.75 25.9601 16.1417 25.9601 16.625V18.3547H33.8351C34.3183 18.3547 34.7101 18.7464 34.7101 19.2297L34.7098 19.2523L34.7101 19.275V34.2088C35.7452 34.5679 36.4882 35.5517 36.4882 36.7092C36.4882 37.8667 35.7453 38.8494 34.7101 39.2081V42.8547H48.7083C49.1911 42.8547 49.5833 42.4624 49.5833 41.9797V20.9797C49.5833 20.4969 49.1911 20.1047 48.7083 20.1047H37.3351C36.8518 20.1047 36.4601 19.7129 36.4601 19.2297C36.4601 18.7464 36.8518 18.3547 37.3351 18.3547H41.7101V16.6408C41.7101 16.1575 42.1018 15.7658 42.5851 15.7658C43.0683 15.7658 43.4601 16.1575 43.4601 16.6408V18.3547H48.7083C50.1576 18.3547 51.3333 19.5304 51.3333 20.9797V41.9797C51.3333 43.4289 50.1576 44.6047 48.7083 44.6047H34.7101V46.2687C34.7101 46.752 34.3183 47.1437 33.8351 47.1437C33.3518 47.1437 32.9601 46.752 32.9601 46.2687V39.2028C31.9335 38.8397 31.198 37.8608 31.198 36.7092C31.198 35.5576 31.9335 34.5776 32.9601 34.2141V20.1047H25.9601V23.7557C26.9953 24.1144 27.7382 25.0971 27.7382 26.2545C27.7382 27.4121 26.9952 28.3958 25.9601 28.755V40.1887C25.9601 40.672 25.5683 41.0637 25.0851 41.0637C24.6018 41.0637 24.2101 40.672 24.2101 40.1887V28.7497C23.1835 28.3861 22.448 27.4061 22.448 26.2545ZM25.1192 27.1502C25.1079 27.1497 25.0965 27.1495 25.0851 27.1495C25.0761 27.1495 25.067 27.1496 25.0581 27.1499C24.5805 27.1319 24.198 26.738 24.198 26.2545C24.198 25.7603 24.5982 25.3603 25.0922 25.3603C25.5878 25.3603 25.9882 25.7601 25.9882 26.2545C25.9882 26.7405 25.6018 27.1359 25.1192 27.1502ZM41.7101 33.9997C40.6835 33.6361 39.948 32.6561 39.948 31.5045C39.948 30.353 40.6835 29.3741 41.7101 29.0109V22.7745C41.7101 22.2912 42.1018 21.8995 42.5851 21.8995C43.0683 21.8995 43.4601 22.2912 43.4601 22.7745V29.0057C44.4953 29.3644 45.2382 30.3471 45.2382 31.5045C45.2382 32.6621 44.4952 33.6458 43.4601 34.005V40.1887C43.4601 40.672 43.0683 41.0637 42.5851 41.0637C42.1018 41.0637 41.7101 40.672 41.7101 40.1887V33.9997ZM43.4882 31.5045C43.4882 31.0101 43.0878 30.6103 42.5922 30.6103C42.0982 30.6103 41.698 31.0103 41.698 31.5045C41.698 31.9994 42.0988 32.4005 42.5922 32.4005C43.0872 32.4005 43.4882 31.9995 43.4882 31.5045ZM34.7382 36.7092C34.7382 36.2142 34.3372 35.8132 33.8422 35.8132C33.3488 35.8132 32.948 36.2144 32.948 36.7092C32.948 37.2035 33.3482 37.6034 33.8422 37.6034C34.3378 37.6034 34.7382 37.2037 34.7382 36.7092Z" fill="white"/>
</g>
<defs>
<filter id="filter0_d_1_1797" x="0.200012" y="0.75" width="65.6" height="65.6" filterUnits="userSpaceOnUse" color-interpolation-filters="sRGB">
<feFlood flood-opacity="0" result="BackgroundImageFix"/>
<feColorMatrix in="SourceAlpha" type="matrix" values="0 0 0 0 0 0 0 0 0 0 0 0 0 0 0 0 0 0 127 0" result="hardAlpha"/>
<feOffset dy="3"/>
<feGaussianBlur stdDeviation="2"/>
<feComposite in2="hardAlpha" operator="out"/>
<feColorMatrix type="matrix" values="0 0 0 0 0 0 0 0 0 0 0 0 0 0 0 0 0 0 0.19 0"/>
<feBlend mode="normal" in2="BackgroundImageFix" result="effect1_dropShadow_1_1797"/>
<feBlend mode="normal" in="SourceGraphic" in2="effect1_dropShadow_1_1797" result="shape"/>
</filter>
</defs>
</svg>
