<svg width="66" height="66" viewBox="0 0 66 66" fill="none" xmlns="http://www.w3.org/2000/svg">
<g filter="url(#filter0_d_1348_775)">
<rect x="4.19995" y="1" width="57.6" height="57.6" rx="28.8" fill="#72B54D" shape-rendering="crispEdges"/>
<path fill-rule="evenodd" clip-rule="evenodd" d="M22.4479 25.5045C22.4479 24.353 23.1835 23.3741 24.21 23.0109V19.3547H18.9583C18.4755 19.3547 18.0833 19.7469 18.0833 20.2297V41.2297C18.0833 41.7124 18.4755 42.1047 18.9583 42.1047H30.3035C30.7868 42.1047 31.1785 42.4964 31.1785 42.9797C31.1785 43.4629 30.7868 43.8547 30.3035 43.8547H18.9583C17.509 43.8547 16.3333 42.6789 16.3333 41.2297V20.2297C16.3333 18.7804 17.509 17.6047 18.9583 17.6047H24.21V15.875C24.21 15.3917 24.6017 15 25.085 15C25.5683 15 25.96 15.3917 25.96 15.875V17.6047H33.835C34.3183 17.6047 34.71 17.9964 34.71 18.4797L34.7097 18.5023L34.71 18.525V33.4588C35.7451 33.8179 36.4882 34.8017 36.4882 35.9592C36.4882 37.1167 35.7452 38.0994 34.71 38.4581V42.1047H48.7083C49.191 42.1047 49.5833 41.7124 49.5833 41.2297V20.2297C49.5833 19.7469 49.191 19.3547 48.7083 19.3547H37.335C36.8517 19.3547 36.46 18.9629 36.46 18.4797C36.46 17.9964 36.8517 17.6047 37.335 17.6047H41.71V15.8908C41.71 15.4075 42.1017 15.0158 42.585 15.0158C43.0683 15.0158 43.46 15.4075 43.46 15.8908V17.6047H48.7083C50.1575 17.6047 51.3333 18.7804 51.3333 20.2297V41.2297C51.3333 42.6789 50.1575 43.8547 48.7083 43.8547H34.71V45.5187C34.71 46.002 34.3183 46.3937 33.835 46.3937C33.3517 46.3937 32.96 46.002 32.96 45.5187V38.4528C31.9335 38.0897 31.1979 37.1108 31.1979 35.9592C31.1979 34.8076 31.9335 33.8276 32.96 33.4641V19.3547H25.96V23.0057C26.9952 23.3644 27.7382 24.3471 27.7382 25.5045C27.7382 26.6621 26.9951 27.6458 25.96 28.005V39.4387C25.96 39.922 25.5683 40.3137 25.085 40.3137C24.6017 40.3137 24.21 39.922 24.21 39.4387V27.9997C23.1835 27.6361 22.4479 26.6561 22.4479 25.5045ZM25.1191 26.4002C25.1078 26.3997 25.0965 26.3995 25.085 26.3995C25.076 26.3995 25.067 26.3996 25.0581 26.3999C24.5804 26.3819 24.1979 25.988 24.1979 25.5045C24.1979 25.0103 24.5982 24.6103 25.0922 24.6103C25.5878 24.6103 25.9882 25.0101 25.9882 25.5045C25.9882 25.9905 25.6017 26.3859 25.1191 26.4002ZM41.71 33.2497C40.6835 32.8861 39.9479 31.9061 39.9479 30.7545C39.9479 29.603 40.6835 28.6241 41.71 28.2609V22.0245C41.71 21.5412 42.1017 21.1495 42.585 21.1495C43.0683 21.1495 43.46 21.5412 43.46 22.0245V28.2557C44.4952 28.6144 45.2382 29.5971 45.2382 30.7545C45.2382 31.9121 44.4951 32.8958 43.46 33.255V39.4387C43.46 39.922 43.0683 40.3137 42.585 40.3137C42.1017 40.3137 41.71 39.922 41.71 39.4387V33.2497ZM43.4882 30.7545C43.4882 30.2601 43.0878 29.8603 42.5922 29.8603C42.0982 29.8603 41.6979 30.2603 41.6979 30.7545C41.6979 31.2494 42.0988 31.6505 42.5922 31.6505C43.0872 31.6505 43.4882 31.2495 43.4882 30.7545ZM34.7382 35.9592C34.7382 35.4642 34.3372 35.0632 33.8422 35.0632C33.3488 35.0632 32.9479 35.4644 32.9479 35.9592C32.9479 36.4535 33.3482 36.8534 33.8422 36.8534C34.3378 36.8534 34.7382 36.4537 34.7382 35.9592Z" fill="white"/>
</g>
<defs>
<filter id="filter0_d_1348_775" x="0.199951" y="0" width="65.6" height="65.6" filterUnits="userSpaceOnUse" color-interpolation-filters="sRGB">
<feFlood flood-opacity="0" result="BackgroundImageFix"/>
<feColorMatrix in="SourceAlpha" type="matrix" values="0 0 0 0 0 0 0 0 0 0 0 0 0 0 0 0 0 0 127 0" result="hardAlpha"/>
<feOffset dy="3"/>
<feGaussianBlur stdDeviation="2"/>
<feComposite in2="hardAlpha" operator="out"/>
<feColorMatrix type="matrix" values="0 0 0 0 0 0 0 0 0 0 0 0 0 0 0 0 0 0 0.19 0"/>
<feBlend mode="normal" in2="BackgroundImageFix" result="effect1_dropShadow_1348_775"/>
<feBlend mode="normal" in="SourceGraphic" in2="effect1_dropShadow_1348_775" result="shape"/>
</filter>
</defs>
</svg>
